<?xml version="1.0" encoding="UTF-8"?> <svg xmlns="http://www.w3.org/2000/svg" width="28" height="28" viewBox="0 0 28 28" fill="none"><path d="M12.6848 0.0382814C11.6403 0.142188 10.459 0.39375 9.51294 0.710938C7.63169 1.33984 5.72856 2.49922 4.29028 3.88828L3.85278 4.31484L6.36841 6.83594C7.752 8.21953 8.89497 9.35156 8.91138 9.35156C8.92778 9.35156 9.07544 9.22578 9.2395 9.06719C10.2348 8.13203 11.7442 7.37188 12.8817 7.24063L13.177 7.20234V3.60391V0L13.0293 0.0109377C12.9418 0.0109377 12.7887 0.0273438 12.6848 0.0382814Z" fill="white"></path><path d="M14.8176 3.60391V7.20234L15.1129 7.24063C16.2504 7.37188 17.7598 8.13203 18.7551 9.06719C18.9192 9.22578 19.0668 9.35156 19.0833 9.35156C19.0997 9.35156 20.2426 8.21953 21.6262 6.83594L24.1418 4.32031L23.8684 4.04141C23.234 3.39609 22.1403 2.5375 21.2379 1.99609C19.5262 0.957031 17.6559 0.317187 15.6489 0.0820312C15.2661 0.0382814 14.9215 0 14.8887 0C14.834 0 14.8176 0.749219 14.8176 3.60391Z" fill="white"></path><path d="M2.51285 5.96607C1.11285 7.9567 0.276135 10.2919 0.0464471 12.8458C-0.0629279 14.109 0.00269707 14.4262 0.440197 14.6833C0.620666 14.7872 0.740978 14.7926 3.4152 14.809C5.31285 14.82 6.29176 14.809 6.48317 14.7653C6.93707 14.6669 7.16129 14.3551 7.16129 13.8247C7.16129 13.0645 7.42379 11.9215 7.7902 11.1286L7.97067 10.7348L5.38395 8.14811L2.79723 5.56139L2.51285 5.96607Z" fill="white"></path><path d="M22.5995 8.16494L20.0237 10.7462L20.1823 11.0743C20.5487 11.8454 20.7456 12.6603 20.8276 13.7157C20.8768 14.3392 20.9424 14.4868 21.276 14.6837C21.4565 14.7876 21.5768 14.7931 24.251 14.8095C27.2752 14.8313 27.494 14.8149 27.7401 14.5579C28.0135 14.2735 28.0518 13.9454 27.9424 12.7696C27.7729 10.9431 27.3463 9.42822 26.5479 7.79306C26.2034 7.0876 25.3557 5.69853 25.219 5.61103C25.1917 5.59463 24.0159 6.74853 22.5995 8.16494Z" fill="white"></path><path d="M13.434 10.5601C13.0239 10.6585 12.6028 10.8991 12.2747 11.2327C11.9848 11.528 11.52 12.3101 8.23871 18.003C6.19887 21.5468 4.48168 24.5655 4.42153 24.7187C3.9184 26.0366 4.73325 27.546 6.13871 27.9233C6.55434 28.0327 21.4348 28.0327 21.845 27.9233C22.3043 27.803 22.6434 27.6116 22.977 27.2835C23.6606 26.6163 23.9012 25.5827 23.5731 24.7187C23.5129 24.5655 21.7957 21.5468 19.7559 18.003C16.4747 12.3101 16.0098 11.528 15.72 11.2327C15.1184 10.6257 14.2489 10.3687 13.434 10.5601ZM14.3801 14.9843C14.5223 15.0554 14.6372 15.1702 14.7082 15.3124C14.8122 15.5202 14.8176 15.6296 14.8176 18.1562C14.8176 20.6827 14.8122 20.7921 14.7082 20.9999C14.5825 21.246 14.2707 21.4374 13.9918 21.4374C13.7403 21.4374 13.4012 21.2241 13.2809 20.989C13.1825 20.7976 13.177 20.6335 13.177 18.1452C13.1825 15.1757 13.1715 15.2577 13.5926 15.0062C13.8551 14.8476 14.0957 14.8421 14.3801 14.9843ZM14.3801 23.1874C14.6262 23.3132 14.8176 23.6249 14.8176 23.8983C14.8176 24.314 14.4129 24.7187 13.9918 24.7187C13.7403 24.7187 13.4012 24.5054 13.2809 24.2702C13.0786 23.8765 13.2043 23.4444 13.5926 23.2093C13.8551 23.0507 14.0957 23.0452 14.3801 23.1874Z" fill="white"></path></svg> 