<?xml version="1.0" encoding="UTF-8"?> <svg xmlns="http://www.w3.org/2000/svg" width="220" height="100" viewBox="0 0 220 100" fill="none"><rect width="220" height="100" rx="8" fill="#121B1F"></rect><g clip-path="url(#clip0_1_1629)"><mask id="mask0_1_1629" style="mask-type:luminance" maskUnits="userSpaceOnUse" x="55" y="26" width="110" height="43"><path d="M164.5 26H55.5V69H164.5V26Z" fill="white"></path></mask><g mask="url(#mask0_1_1629)"><mask id="mask1_1_1629" style="mask-type:luminance" maskUnits="userSpaceOnUse" x="55" y="26" width="110" height="43"><path d="M164.5 26H55.5V69H164.5V26Z" fill="white"></path></mask><g mask="url(#mask1_1_1629)"><path d="M73.5798 39.2678C73.7048 32.9533 70.2002 27.451 68.3748 26.1286C68.3665 26.1201 68.204 26.0308 68.2164 26.2774C68.2164 26.2817 68.2123 26.2817 68.2123 26.2859C68.0248 38.2133 62.0155 41.4279 58.7525 45.7991C51.5014 55.5194 57.5523 66.6092 65.3909 68.7096C65.5244 68.7437 65.8869 68.8543 66.5746 68.9988C66.9329 69.0755 67.0371 68.7649 66.7745 68.3015C65.8369 66.6389 64.1699 63.8324 63.8409 60.2266C63.0907 51.8541 73.4339 46.6155 73.5798 39.2678Z" fill="white"></path><path d="M77.5303 43.3117C77.4678 43.2649 77.3804 43.2691 77.3721 43.3498C77.2054 44.868 75.6676 48.0146 73.6423 50.957C66.8245 60.8773 70.2585 65.376 72.9256 68.4972C73.4172 69.0755 73.663 68.948 73.9215 68.5356C74.1632 68.1443 74.5298 67.6467 76.1052 66.8857C76.3511 66.7666 82.302 63.5435 82.948 56.2043C83.5689 49.1031 79.1055 44.6127 77.5303 43.3117Z" fill="white"></path><path d="M112.932 41.5044V67.6084H107.444V57.0632H96.8961V67.6084H91.2703V41.5044H96.8961V52.0498H107.444V41.5044H112.932Z" fill="white"></path><path d="M138.307 41.5044V46.6665H135.694H130.426V67.6042H124.78V46.6665H119.654H117.041V41.5044H138.307Z" fill="white"></path><path fill-rule="evenodd" clip-rule="evenodd" d="M158.293 67.634L151.842 58.5513L145.441 67.5957L139.182 67.6042L148.671 54.278L139.715 41.5044H145.97L164.523 67.634H158.293Z" fill="white"></path><path d="M153.596 47.3469L156.693 51.7352L164.027 41.5001H157.805L153.596 47.3469Z" fill="white"></path></g></g></g><defs><clipPath id="clip0_1_1629"><rect width="109" height="43" fill="white" transform="translate(55.5 26)"></rect></clipPath></defs></svg> 