<?xml version="1.0" encoding="UTF-8"?> <svg xmlns="http://www.w3.org/2000/svg" width="220" height="100" viewBox="0 0 220 100" fill="none"><rect width="220" height="100" rx="8" fill="#121B1F"></rect><path d="M62.2961 51.5276H54.3068L46.1337 43.5093C45.6021 42.9877 45.5993 42.1393 46.1283 41.615L56.6098 31.213H64.8399L62.3517 33.6014L53.2162 42.5646L62.2356 51.5278M59.0122 42.5853H67.0015L75.1746 50.6036C75.7061 51.1252 75.7089 51.9736 75.1799 52.4979L64.6984 62.8992H56.4684L58.9565 60.5109L68.092 51.5477L59.0727 42.5845M121.95 48.7994V44.3695H118.105V38.1202H112.815V44.3695H109.531V48.7994H112.815V56.051C112.815 60.0826 113.619 63.0454 118.633 62.9539L121.78 62.893V58.7394H120.218C117.99 58.7394 118.114 57.4567 118.114 55.0742L118.105 48.7995H121.949L121.95 48.7994ZM175.266 48.7994V44.3695H171.422V38.1202H166.131V44.3695H162.847V48.7994H166.131V56.051C166.131 60.0826 166.935 63.0454 171.949 62.9539L175.096 62.893V58.7394H173.534C171.306 58.7394 171.43 57.4567 171.43 55.0742L171.421 48.7995H175.266L175.266 48.7994ZM137.045 46.4706C136.415 45.7233 135.677 45.1441 134.844 44.7437C133.85 44.269 132.686 44.0286 131.387 44.0286C129.795 44.0286 128.368 44.4163 127.147 45.1796C125.928 45.9423 124.961 47.0203 124.274 48.3817C123.59 49.7396 123.242 51.3339 123.242 53.1223C123.242 54.9107 123.608 56.4112 124.329 57.7786C125.052 59.1505 126.054 60.2433 127.308 61.0283C128.564 61.8149 129.996 62.2141 131.565 62.2141C132.75 62.2141 133.832 61.9608 134.78 61.4607C135.531 61.065 136.16 60.5415 136.655 59.902V61.9188C136.655 63.1688 136.323 64.1284 135.668 64.7679C135.011 65.4074 134.013 65.7301 132.7 65.7301C131.569 65.7301 130.679 65.4771 130.057 64.9767C129.547 64.5678 129.103 64.0307 128.999 62.8936H123.864C123.911 64.4846 124.385 65.5568 125.053 66.4959C125.802 67.5486 126.856 68.3717 128.188 68.9399C129.507 69.5017 131.037 69.7869 132.736 69.7869C135.588 69.7869 137.858 69.0793 139.482 67.6852C141.117 66.283 141.945 64.3199 141.945 61.851V44.3688H137.045L137.045 46.4706ZM136.107 55.5831C135.769 56.2713 135.293 56.8111 134.688 57.1846C134.085 57.5583 133.357 57.7484 132.523 57.7484C131.317 57.7484 130.379 57.3435 129.655 56.5091C128.934 55.6795 128.568 54.5399 128.568 53.1216C128.568 51.7034 128.934 50.5637 129.655 49.7328C130.37 48.9099 131.335 48.4934 132.523 48.4934C133.71 48.4934 134.759 48.9159 135.497 49.7515C136.241 50.5939 136.619 51.7395 136.619 53.1543C136.619 54.071 136.447 54.8872 136.107 55.5821L136.107 55.5831ZM107.876 38.1202H102.327V42.5849H107.876V38.1202ZM160.372 47.1551C159.529 46.1641 158.473 45.3874 157.232 44.8456C155.992 44.3046 154.598 44.0287 153.09 44.0287C151.241 44.0287 149.574 44.4432 148.132 45.2601C146.687 46.0797 145.54 47.218 144.722 48.6454C143.904 50.0717 143.49 51.7269 143.49 53.5635C143.49 55.4002 143.892 57.1645 144.685 58.6128C145.48 60.0659 146.622 61.2054 148.08 62.0028C149.536 62.7956 151.245 63.1981 153.161 63.1981C155.513 63.1981 157.509 62.6143 159.096 61.4617C160.625 60.3531 161.676 58.7889 162.248 56.8309H156.886C156.604 57.4971 156.207 58.0644 155.638 58.4641C154.965 58.9355 154.096 59.1745 153.055 59.1745C152.151 59.1745 151.378 58.9575 150.754 58.5303C150.129 58.1032 149.65 57.4717 149.336 56.6516C149.148 56.1641 149.014 55.6036 148.936 54.9802H162.342L162.368 54.8155C162.608 53.3217 162.548 51.9061 162.187 50.6086C161.825 49.3076 161.215 48.1459 160.373 47.1549L160.372 47.1551ZM149.02 51.551C149.102 51.174 149.213 50.7816 149.353 50.4241C149.68 49.5931 150.152 48.9536 150.757 48.5265C151.359 48.0993 152.109 47.8836 152.985 47.8836C154.083 47.8836 154.984 48.2352 155.663 48.9269C156.308 49.585 156.673 50.4843 156.751 51.551H149.021L149.02 51.551ZM107.766 44.3695H102.44V62.8931H107.766V44.3695ZM96.5022 49.93C97.4764 49.3836 98.2572 48.7033 98.8255 47.9011C99.4732 46.9878 99.802 45.9446 99.802 44.8022C99.802 42.6636 98.9922 40.9942 97.3965 39.84C95.8199 38.6991 93.6505 38.1212 90.9466 38.1212H81.1698V62.8936H91.3373C94.1848 62.8936 96.4648 62.2399 98.1132 60.9497C99.7749 59.6487 100.618 57.8268 100.618 55.5335C100.618 54.1374 100.222 52.936 99.4404 51.9638C98.7393 51.0947 97.7524 50.411 96.5026 49.9296L96.5022 49.93ZM86.4606 42.586H90.5215C91.7951 42.586 92.7566 42.8298 93.3813 43.3092C93.9983 43.7826 94.2981 44.4046 94.2981 45.2102C94.2981 46.0157 93.9983 46.6692 93.3813 47.1446C92.7567 47.624 91.795 47.8678 90.5215 47.8678H86.4606V42.586ZM94.1056 57.5895C93.4015 58.1466 92.3268 58.4283 90.9114 58.4283H86.4606V52.366H90.9114C92.3259 52.366 93.4021 52.6385 94.1087 53.1735C94.8092 53.7072 95.1498 54.4116 95.1498 55.3296C95.1498 56.2951 94.808 57.0342 94.1054 57.59L94.1056 57.5895Z" fill="white"></path></svg> 