<?xml version="1.0" encoding="UTF-8"?> <svg xmlns="http://www.w3.org/2000/svg" width="52" height="52" viewBox="0 0 52 52" fill="none"><path d="M14.7469 5.42344C8.78513 8.40938 3.75779 10.9688 3.58513 11.1109C3.05701 11.5578 3.00623 11.8523 3.07732 14.5742C3.30076 23.0141 5.41326 31.2508 8.98826 37.5273C11.8015 42.4734 15.3969 46.2922 19.957 49.1664C21.907 50.3953 25.3195 52 26 52C26.8023 52 30.5906 50.1516 32.7437 48.7094C34.7547 47.3586 35.6789 46.607 37.4867 44.7992C39.8633 42.4227 41.5898 40.1273 43.2656 37.0805C46.7695 30.7125 48.9429 21.7242 48.9531 13.5891C48.9531 11.9336 48.8922 11.5883 48.5164 11.182C48.3945 11.05 43.3672 8.48047 37.3445 5.47422C28.407 1.00547 26.325 0 26 0C25.675 0 23.6031 0.995316 14.7469 5.42344ZM34.3078 10.8063C40.5844 13.9445 42.3515 14.8688 42.5039 15.0922C42.7781 15.5188 42.7984 16.118 42.6054 17.9766C41.925 24.7508 39.9648 30.9766 37.0601 35.6281C35.9328 37.4563 34.8562 38.7969 33.2211 40.432C31.4539 42.1891 30.0929 43.2555 28.1836 44.3727C26.5179 45.3477 26.1523 45.4695 25.5531 45.2766C24.8929 45.0531 22.75 43.7734 21.4804 42.8289C20.0484 41.7828 17.4484 39.1828 16.3922 37.7609C12.5937 32.6523 10.2375 26 9.39451 18.0375C9.20154 16.2094 9.22185 15.5188 9.49607 15.1023C9.64841 14.8688 11.375 13.9648 17.6922 10.8063C22.8109 8.24688 25.807 6.80469 26 6.80469C26.1929 6.80469 29.189 8.24688 34.3078 10.8063Z" fill="white"></path><path d="M19.175 13.4672L12.3906 16.8594V17.2555C12.3906 18.4641 13.0102 22.1203 13.6297 24.5273C15.4781 31.7891 18.9109 37.2938 23.7148 40.6961C24.6594 41.3664 25.8273 42.0469 26.0102 42.0469C26.2437 42.0469 27.7469 41.1125 28.793 40.3203C33.4648 36.7859 36.7453 31.2711 38.4922 24.0195C39.0711 21.6633 39.6094 18.3727 39.6094 17.2656V16.8594L32.8047 13.457C29.0672 11.5883 25.9898 10.0547 25.9797 10.0648C25.9594 10.0648 22.9023 11.5984 19.175 13.4672Z" fill="white"></path></svg> 