<?xml version="1.0" encoding="UTF-8"?> <svg xmlns="http://www.w3.org/2000/svg" width="220" height="100" viewBox="0 0 220 100" fill="none"><g clip-path="url(#clip0_157_93408)"><rect width="220" height="100" rx="8" fill="#121B1F"></rect><path d="M38.1514 30.4204C43.4176 30.4204 43.4176 30.4204 45.4762 30.9669C45.7068 31.025 45.9375 31.0831 46.1751 31.1429C51.886 32.6435 56.4203 35.6545 60.8139 39.4886C61.8505 39.031 62.5355 38.476 63.3432 37.6871C69.1847 32.4422 76.4258 30.4204 84.1239 30.4204C84.1239 33.8404 84.1239 37.2604 84.1239 40.784C83.3626 40.8575 82.6014 40.931 81.8171 41.0067C76.4548 41.6361 72.2036 43.8919 68.3347 47.6307C67.8759 48.201 67.8759 48.201 67.9465 48.8693C69.4885 52.1098 74.062 54.2895 77.2644 55.4591C79.7124 56.1748 79.7124 56.1748 84.1239 56.6534C84.1239 60.0734 84.1239 63.4934 84.1239 67.017C76.3667 67.017 69.6663 64.7439 63.6528 59.8216C62.7458 59.0798 61.8981 58.4072 60.8139 57.9488C60.5822 58.1526 60.3506 58.3563 60.112 58.5662C53.676 64.0966 46.6936 67.017 38.1514 67.017C38.1514 63.597 38.1514 60.177 38.1514 56.6534C40.5552 56.3327 40.5552 56.3327 43.0076 56.0056C47.1464 54.9628 51.1583 52.7517 54.0151 49.5284C54.364 48.9024 54.364 48.9024 54.3389 48.2329C51.936 44.6347 47.0084 42.4754 42.9874 41.3508C41.393 41.047 39.7677 40.931 38.1514 40.784C38.1514 37.364 38.1514 33.944 38.1514 30.4204Z" fill="white"></path><path d="M147.058 43.0196C147.4 43.0203 147.4 43.0203 147.749 43.021C148.475 43.0228 149.2 43.0269 149.926 43.031C150.419 43.0326 150.912 43.0341 151.406 43.0354C152.612 43.0387 153.819 43.0451 155.025 43.0512C155.025 44.5475 155.025 46.0437 155.025 47.5853C154.811 47.6922 154.598 47.7991 154.378 47.9092C154.482 48.1275 154.586 48.3459 154.694 48.5708C155.382 50.5592 155.414 53.238 154.734 55.2455C154.424 55.8363 154.08 56.409 153.73 56.9774C153.624 57.9915 153.624 57.9915 154.378 58.6979C155.536 60.3631 155.266 62.5071 155.025 64.4262C154.191 67.1875 152.545 68.7299 150.169 70.2153C147.733 71.1284 144.586 70.9973 142.237 69.9319C139.903 68.5486 138.465 66.7464 137.675 64.1593C137.543 63.4547 137.543 63.4547 137.543 61.8353C139.252 61.8353 140.961 61.8353 142.723 61.8353C143.018 62.489 143.313 63.1426 143.608 63.7962C144.1 64.5531 144.472 64.7653 145.313 65.074C146.521 65.1839 147.369 65.1515 148.51 64.7299C149.471 63.8529 149.45 63.1003 149.521 61.8353C148.059 61.087 146.828 60.7867 145.191 60.6006C142.478 60.2173 140.733 59.1198 139.02 56.9976C137.659 55.0066 137.235 52.8746 137.543 50.5001C138.423 47.1956 139.652 45.5077 142.581 43.7749C144.082 43.0145 145.379 43.013 147.058 43.0196ZM144.018 49.2047C143.154 50.0979 142.782 50.8734 142.723 52.1194C143.269 53.6069 143.909 54.5951 145.313 55.3581C146.706 55.4603 147.836 55.2686 149.036 54.5484C149.756 53.3468 149.902 52.2154 149.845 50.824C149.385 49.4999 148.981 49.2592 147.72 48.6176C146.075 48.0489 145.52 48.3456 144.018 49.2047Z" fill="white"></path><path d="M91.8938 36.2499C93.8569 36.2165 95.8201 36.1831 97.8427 36.1487C98.7619 36.1266 98.7619 36.1266 99.6997 36.104C102.573 36.0639 105.036 36.0526 107.434 37.8692C108.921 39.3186 109.743 41.1123 109.821 43.1927C109.775 44.7041 109.303 45.8724 108.729 47.2613C108.729 48.4221 108.965 48.6315 109.68 49.5081C111.088 51.236 111.182 52.8583 110.995 55.034C110.626 57.0346 109.654 58.1334 108.124 59.4239C106.324 60.644 104.719 60.6268 102.612 60.6029C102.34 60.6023 102.068 60.6016 101.787 60.6009C100.776 60.5976 99.7646 60.5885 98.7533 60.5801C95.3578 60.5601 95.3578 60.5601 91.8938 60.5397C91.8938 52.524 91.8938 44.5084 91.8938 36.2499ZM97.0738 40.784C97.0738 42.6009 97.0738 44.4177 97.0738 46.2897C97.9485 46.3164 98.8233 46.3431 99.7245 46.3706C100.133 46.3883 100.133 46.3883 100.551 46.4064C101.825 46.4252 102.438 46.378 103.545 45.6774C104.316 44.8689 104.494 44.542 104.641 43.4356C104.601 42.3662 104.601 42.3662 103.892 41.5354C102.532 40.5035 101.541 40.5979 99.8864 40.6828C99.4804 40.6937 99.4804 40.6937 99.0663 40.7049C98.4018 40.7239 97.7377 40.7529 97.0738 40.784ZM97.0738 50.4999C97.0738 52.4236 97.0738 54.3474 97.0738 56.3294C98.1194 56.3557 99.1643 56.375 100.21 56.3902C100.505 56.3983 100.801 56.4064 101.105 56.4148C103.298 56.4406 103.298 56.4406 105.168 55.3578C105.927 54.2184 106.003 53.7846 105.815 52.4431C104.989 51.4386 104.463 50.9126 103.225 50.4999C102.745 50.4738 102.265 50.465 101.785 50.4683C101.51 50.4693 101.236 50.4703 100.953 50.4714C100.668 50.4741 100.383 50.4769 100.089 50.4796C99.6552 50.4818 99.6552 50.4818 99.213 50.4841C98.4999 50.4879 97.7868 50.4937 97.0738 50.4999Z" fill="white"></path><path d="M155.996 36.8977C161.464 36.406 161.464 36.406 162.992 37.5049C163.572 38.3561 163.995 39.1962 164.414 40.1363C164.779 40.7473 165.149 41.3548 165.527 41.9581C165.804 42.4296 166.082 42.9017 166.356 43.375C166.695 42.9038 167.032 42.4312 167.368 41.9581C167.581 41.6658 167.794 41.3736 168.013 41.0725C168.646 40.1693 168.646 40.1693 168.989 39.2002C169.414 38.16 169.68 37.6038 170.565 36.8977C172.583 36.4883 174.683 36.7164 176.716 36.8977C176.274 38.0877 175.735 39.1323 175.071 40.2135C174.778 40.6923 174.778 40.6923 174.48 41.1807C174.175 41.6757 174.175 41.6757 173.863 42.1807C173.664 42.507 173.464 42.8332 173.258 43.1694C173.062 43.4898 172.865 43.8102 172.663 44.1404C172.473 44.4525 172.283 44.7646 172.087 45.0862C171.74 45.6402 171.382 46.1872 171.007 46.7229C170.853 46.9452 170.7 47.1676 170.541 47.3967C170.404 47.5842 170.268 47.7718 170.127 47.965C169.845 48.5819 169.845 48.5819 170.135 49.3271C170.597 50.2395 171.1 51.1005 171.645 51.9662C171.962 52.4713 171.962 52.4713 172.285 52.9865C172.616 53.5091 172.616 53.5091 172.953 54.0422C173.28 54.5629 173.28 54.5629 173.613 55.0942C174.89 57.1274 174.89 57.1274 176.223 59.1241C176.716 59.892 176.716 59.892 176.716 60.5397C174.669 60.9291 172.561 61.3024 170.565 60.5397C168.647 58.809 167.472 56.3598 166.356 54.0625C166.273 54.2587 166.189 54.4549 166.102 54.6571C164.171 58.9692 164.171 58.9692 162.471 60.5397C160.4 61.315 158.122 60.9499 155.996 60.5397C158.193 56.5409 160.649 52.7147 163.119 48.8807C161.593 46.2048 159.984 43.5947 158.32 41.0032C157.464 39.6633 156.672 38.3372 155.996 36.8977Z" fill="white"></path><path d="M120.384 43.0511C122.093 43.0511 123.803 43.0511 125.564 43.0511C125.564 43.2648 125.564 43.4786 125.564 43.6988C125.818 43.5919 126.071 43.485 126.333 43.3749C128.672 42.7292 130.802 42.8023 132.995 43.8911C134.531 44.9468 135.548 46.4144 135.924 48.2329C135.951 49.1752 135.961 50.1094 135.955 51.0515C135.955 51.3228 135.954 51.5942 135.954 51.8737C135.952 52.7382 135.948 53.6027 135.944 54.4673C135.942 55.0543 135.941 55.6413 135.94 56.2283C135.936 57.6654 135.93 59.1026 135.924 60.5397C134.214 60.5397 132.505 60.5397 130.744 60.5397C130.732 59.787 130.72 59.0343 130.707 58.2587C130.692 57.5266 130.676 56.7945 130.659 56.0625C130.648 55.5552 130.639 55.0479 130.632 54.5406C130.621 53.8096 130.604 53.079 130.586 52.3482C130.584 52.1228 130.582 51.8974 130.579 51.6651C130.533 50.1306 130.229 49.0137 129.125 47.909C128.019 47.7861 127.408 47.7508 126.483 48.4002C125.668 49.5005 125.692 50.4919 125.69 51.8106C125.685 52.0603 125.68 52.3101 125.674 52.5674C125.658 53.3627 125.651 54.1577 125.645 54.9531C125.636 55.4933 125.626 56.0335 125.616 56.5736C125.591 57.8958 125.578 59.2172 125.564 60.5397C123.854 60.5397 122.145 60.5397 120.384 60.5397C120.384 54.7685 120.384 48.9972 120.384 43.0511Z" fill="white"></path><path d="M112.938 43.051C114.647 43.051 116.356 43.051 118.117 43.051C118.117 48.8223 118.117 54.5935 118.117 60.5397C116.408 60.5397 114.699 60.5397 112.938 60.5397C112.938 54.7684 112.938 48.9972 112.938 43.051Z" fill="white"></path><path d="M112.938 36.25C114.647 36.25 116.356 36.25 118.117 36.25C118.117 37.96 118.117 39.67 118.117 41.4318C116.408 41.4318 114.699 41.4318 112.938 41.4318C112.938 39.7218 112.938 38.0118 112.938 36.25Z" fill="white"></path></g><defs><clipPath id="clip0_157_93408"><rect width="220" height="100" rx="8" fill="white"></rect></clipPath></defs></svg> 