<?xml version="1.0" encoding="UTF-8"?> <svg xmlns="http://www.w3.org/2000/svg" width="220" height="100" viewBox="0 0 220 100" fill="none"><rect width="220" height="100" rx="8" fill="#121B1F"></rect><g clip-path="url(#clip0_1_1590)"><path fill-rule="evenodd" clip-rule="evenodd" d="M154.373 44.6241H158.217V41.0308H154.373V44.6241ZM133.943 50.6114C134.679 48.7894 136.558 47.4938 138.761 47.4938C140.964 47.4938 142.848 48.7894 143.579 50.6114H133.943ZM138.761 44.1484C133.943 44.1484 130.035 47.8025 130.035 52.3068C130.035 56.8112 133.943 60.4653 138.761 60.4653C142.069 60.4653 144.943 58.7445 146.421 56.214L143.2 54.7513C142.301 56.1735 140.65 57.125 138.761 57.125C136.374 57.125 134.366 55.6067 133.781 53.5417H143.741V53.5468H147.39C147.455 53.1419 147.487 52.7269 147.487 52.3068C147.487 47.8025 143.584 44.1484 138.761 44.1484ZM148.505 60.0301H152.349V56.4367H148.505V60.0301ZM154.373 60.0301H158.217V46.2032H154.373V60.0301ZM168.94 57.125C166.093 57.125 163.787 54.969 163.787 52.3068C163.787 49.6447 166.093 47.4887 168.94 47.4887C171.788 47.4887 174.094 49.6447 174.094 52.3068C174.094 54.969 171.788 57.125 168.94 57.125ZM168.94 44.1484C164.123 44.1484 160.214 47.8025 160.214 52.3068C160.214 56.8112 164.123 60.4653 168.94 60.4653C173.758 60.4653 177.667 56.8112 177.667 52.3068C177.667 47.8025 173.758 44.1484 168.94 44.1484ZM88.585 49.3006V53.0154H93.9604C93.6789 54.0782 93.1267 55.0297 92.331 55.7889C91.1292 56.9377 89.4673 57.5653 87.6484 57.5653C83.8699 57.5653 80.7952 54.6906 80.7952 51.1529C80.7952 47.6203 83.8699 44.7405 87.6484 44.7405C89.673 44.7405 91.5352 45.5503 92.8236 46.9472L95.8984 44.5938C93.8575 42.3568 90.8315 41.0206 87.6484 41.0206C81.6775 41.0206 76.8218 45.5655 76.8218 51.1479C76.8218 56.7302 81.6775 61.2751 87.6484 61.2751C90.55 61.2751 93.2188 60.2983 95.173 58.4308C96.8132 56.8618 97.9013 54.6754 98.107 52.489C98.2099 51.4212 98.2207 50.3583 98.1557 49.2904L88.585 49.3006ZM108.16 57.125C105.318 57.125 103.006 54.969 103.006 52.3068C103.006 49.6447 105.312 47.4887 108.16 47.4887C111.007 47.4887 113.313 49.6447 113.313 52.3068C113.313 54.969 111.007 57.125 108.16 57.125ZM113.313 45.7376C111.868 44.7456 110.087 44.1636 108.16 44.1636C103.342 44.1636 99.4387 47.8177 99.4387 52.322C99.4387 56.8264 103.347 60.4805 108.16 60.4805C110.087 60.4805 111.868 59.8934 113.313 58.9065V60.0351H116.886V44.6089H113.313V45.7376ZM124.551 41.0308H120.978V44.6241H118.84V47.7772H120.978V56.0267C120.978 56.877 121.092 57.5957 121.319 58.1575C121.541 58.7142 121.888 59.1494 122.294 59.4885C122.705 59.8327 123.187 60.1009 123.761 60.2578C124.345 60.4096 124.984 60.4704 125.666 60.4704C126.37 60.4704 126.998 60.4046 127.528 60.2679C128.027 60.1414 128.503 59.9643 128.941 59.7416V57.2009C128.238 57.4843 127.577 57.5906 126.825 57.621C126.029 57.6564 125.563 57.4438 125.174 57.0946C124.762 56.7302 124.546 56.2545 124.546 55.4599V47.7772H128.941V44.6241H124.546V41.0308H124.551Z" fill="white"></path><path fill-rule="evenodd" clip-rule="evenodd" d="M57.8263 58.4662C53.1221 58.4662 49.3057 54.8981 49.3057 50.5C49.3057 46.1019 53.1221 42.5339 57.8263 42.5339V36.0101C49.2679 36.0101 42.3334 42.4984 42.3334 50.5C42.3334 58.5016 49.2679 64.9848 57.8263 64.9848C66.3794 64.9848 73.3193 58.4965 73.3193 50.5H66.3469C66.3469 54.9031 62.5305 58.4662 57.8263 58.4662Z" fill="white"></path><path fill-rule="evenodd" clip-rule="evenodd" d="M57.8263 50.5H66.3469V42.5338H57.8263V50.5Z" fill="white"></path></g><defs><clipPath id="clip0_1_1590"><rect width="135.333" height="29" fill="white" transform="translate(42.3334 36)"></rect></clipPath></defs></svg> 