<?xml version="1.0" encoding="UTF-8"?> <svg xmlns="http://www.w3.org/2000/svg" width="220" height="100" viewBox="0 0 220 100" fill="none"><rect width="220" height="100" rx="8" fill="#121B1F"></rect><g clip-path="url(#clip0_1_1579)"><path d="M129.717 44.7984H120.819L123.387 37H115.484L106.928 63H123.375C125.229 63.0001 127.035 62.4207 128.535 61.3449C130.035 60.2692 131.151 58.7523 131.724 57.0116L133.875 50.4892C134.092 49.839 134.149 49.1476 134.043 48.4713C133.937 47.7951 133.67 47.1533 133.264 46.5983C132.859 46.0433 132.326 45.5909 131.71 45.2781C131.093 44.9652 130.41 44.8009 129.717 44.7984ZM126.042 50.265L124.263 55.6704C123.976 56.5411 123.418 57.3 122.668 57.8383C121.918 58.3766 121.015 58.6666 120.088 58.6667H116.256L119.394 49.1317H125.208C125.347 49.1314 125.483 49.1635 125.607 49.2254C125.73 49.2873 125.837 49.3773 125.919 49.4879C126 49.5985 126.054 49.7267 126.075 49.8617C126.097 49.9968 126.085 50.135 126.042 50.265Z" fill="white"></path><path d="M143.579 37L141.865 42.2016H149.769L151.478 37H143.579Z" fill="white"></path><path d="M135.019 63H142.923L148.91 44.7983H141.011L135.019 63Z" fill="white"></path><path d="M160.761 49.1317H166.075L167.5 44.7984H162.186L164.754 37H156.851L150.161 57.3255C149.948 57.9763 149.893 58.6678 150.002 59.3434C150.111 60.0191 150.38 60.6598 150.787 61.2131C151.195 61.7665 151.729 62.2168 152.346 62.5274C152.964 62.8379 153.647 62.9999 154.34 63H163.111L164.539 58.6667H158.824C158.687 58.6664 158.551 58.6339 158.429 58.572C158.306 58.51 158.2 58.4202 158.12 58.31C158.039 58.1999 157.986 58.0724 157.965 57.9381C157.944 57.8038 157.956 57.6665 157.999 57.5375L160.761 49.1317Z" fill="white"></path><path d="M75.0626 46.0743L83.7052 37H74.4473L67.3161 58.6667H61.3865C61.249 58.6649 61.1138 58.6312 60.9919 58.5685C60.8699 58.5058 60.7645 58.4157 60.6842 58.3055C60.6039 58.1953 60.5509 58.0681 60.5294 57.934C60.508 57.7999 60.5187 57.6627 60.5606 57.5334L67.312 37H59.4086L52.7192 57.3336C52.5054 57.9834 52.4505 58.6738 52.5588 59.3485C52.6671 60.0232 52.9357 60.663 53.3424 61.2156C53.7491 61.7682 54.2826 62.218 54.8991 62.5281C55.5156 62.8382 56.1978 62.9999 56.8897 63H73.7908L79.7782 44.7984L75.0626 46.0743Z" fill="white"></path><path d="M104.298 37H86.1288L88.8376 46.0743L84.9602 44.8024L78.948 63H86.8514L89.7047 54.3333H98.2482C100.101 54.3325 101.907 53.7528 103.406 52.6771C104.905 51.6014 106.021 50.0849 106.593 48.3449L108.464 42.6664C108.677 42.017 108.731 41.3272 108.622 40.6532C108.514 39.9792 108.246 39.34 107.84 38.7877C107.434 38.2354 106.901 37.7856 106.285 37.475C105.67 37.1643 104.989 37.0016 104.298 37ZM100.631 42.4625L99.136 47.0078C98.8491 47.8778 98.2908 48.6358 97.5409 49.1733C96.791 49.7108 95.888 50.0002 94.9613 50H91.1293L93.9826 41.3333H99.8008C99.9388 41.333 100.075 41.3649 100.198 41.4267C100.321 41.4884 100.427 41.578 100.508 41.6883C100.589 41.7986 100.643 41.9263 100.664 42.0609C100.685 42.1955 100.674 42.3331 100.631 42.4625Z" fill="white"></path></g><defs><clipPath id="clip0_1_1579"><rect width="115" height="26" fill="white" transform="translate(52.5 37)"></rect></clipPath></defs></svg> 