<?xml version="1.0" encoding="UTF-8"?> <svg xmlns="http://www.w3.org/2000/svg" width="32" height="32" viewBox="0 0 32 32" fill="none"><path d="M15.3531 0.0687122C14.7753 0.261292 14.3238 0.692932 14.0714 1.30387C13.932 1.65582 13.9585 2.33317 14.1445 2.75152C14.3171 3.14332 14.8152 3.64137 15.1804 3.77418L15.4062 3.85387V8.32301V12.7921H14.2441H13.082V8.88082C13.082 5.02926 13.082 4.96949 12.9425 4.79684L12.8097 4.62418H11.3554H9.90775L9.73509 4.26559C9.54251 3.86715 9.25033 3.57496 8.81204 3.34918C8.41361 3.13004 7.52376 3.13004 7.12533 3.34918C6.39486 3.73434 6.01634 4.33863 6.01634 5.12223C6.01634 5.90582 6.39486 6.51012 7.12533 6.89528C7.35111 7.01481 7.51048 7.04801 7.96868 7.04801C8.47337 7.04801 8.57298 7.02809 8.89173 6.84879C9.29017 6.62965 9.6554 6.23785 9.77493 5.90582L9.85462 5.68668H10.937H12.0195V9.23942V12.7921H7.27142H2.52337V11.0324V9.27926L2.80892 9.15309C3.78509 8.72145 4.21009 7.47965 3.71204 6.49684C3.38665 5.83942 2.86204 5.48746 2.11829 5.43434C1.47415 5.38785 1.06243 5.54723 0.59759 6.01207C0.312043 6.29762 0.199153 6.47027 0.106184 6.77574C-0.132878 7.53277 0.0929028 8.32965 0.6972 8.8609C0.869856 9.01363 1.10892 9.16637 1.23509 9.20621L1.46087 9.2859V11.4308V13.5824L1.63353 13.7152C1.80618 13.8546 1.85931 13.8546 6.44798 13.8546H11.0898V15.4086C11.0898 16.7367 11.1031 16.9824 11.196 17.0687C11.289 17.1617 11.807 17.175 15.9374 17.175C20.0679 17.175 20.5859 17.1617 20.6788 17.0687C20.7718 16.9824 20.7851 16.7367 20.7851 15.4086V13.8546H25.4335H30.0886L30.248 13.6886L30.414 13.5293V11.4043V9.2859L30.6398 9.20621C30.9718 9.09996 31.4566 8.64176 31.6624 8.24996C31.8085 7.96442 31.8417 7.82496 31.8417 7.38004C31.8417 6.93512 31.8085 6.79567 31.6624 6.51012C31.2773 5.77965 30.5667 5.37457 29.7566 5.43434C29.0128 5.48746 28.4882 5.83942 28.1628 6.49684C27.6648 7.47965 28.0898 8.72145 29.066 9.15309L29.3515 9.27926V11.0324V12.7921H24.6035H19.8554V9.23942V5.68668H20.9378H22.0202L22.0999 5.90582C22.2195 6.23785 22.5847 6.62965 22.9831 6.84879C23.3019 7.02809 23.4015 7.04801 23.9062 7.04801C24.3644 7.04801 24.5238 7.01481 24.7495 6.89528C25.48 6.51012 25.8585 5.90582 25.8585 5.12223C25.8585 4.33863 25.48 3.73434 24.7495 3.34918C24.3511 3.13004 23.4613 3.13004 23.0628 3.34918C22.6245 3.57496 22.3324 3.86715 22.1398 4.26559L21.9671 4.62418H20.5195H19.0652L18.9324 4.79684C18.7929 4.96949 18.7929 5.02926 18.7929 8.88082V12.7921H17.6308H16.4687V8.32301V3.85387L16.6945 3.77418C17.0597 3.64137 17.5577 3.14332 17.7304 2.75152C17.9495 2.26012 17.9495 1.59606 17.7304 1.13785C17.5245 0.719494 17.1394 0.334337 16.7476 0.161682C16.3624 -0.0109749 15.7249 -0.0508175 15.3531 0.0687122ZM17.8632 14.9836V15.8468H15.9374H14.0117V14.9836V14.1203H15.9374H17.8632V14.9836Z" fill="white"></path><path d="M0 16.5906V17.673L1.30156 18.1711L2.60313 18.6691L2.92852 19.6652C3.12773 20.2894 3.43984 21.0398 3.75859 21.6707C4.09727 22.348 4.25 22.7265 4.2168 22.8129C4.19688 22.8859 3.94453 23.4636 3.65898 24.1011L3.14102 25.2632L4.6418 26.764C5.46523 27.5875 6.17578 28.2648 6.21563 28.2648C6.25547 28.2648 6.8332 28.0257 7.49063 27.7336C8.14805 27.4414 8.7125 27.2023 8.73906 27.2023C8.77227 27.2023 9.23711 27.4214 9.775 27.6937C10.3527 27.9859 11.1098 28.298 11.6344 28.464C12.1191 28.6168 12.5773 28.7695 12.6504 28.7961C12.75 28.8359 12.916 29.1879 13.2812 30.1507L13.7793 31.4523H15.9375H18.0957L18.6004 30.1507L19.0984 28.8425L20.0945 28.5238C20.7121 28.3246 21.4625 28.0125 22.0934 27.6937C22.9898 27.2488 23.1293 27.1957 23.2887 27.2554C23.3949 27.2886 23.9461 27.5343 24.5305 27.7933C25.1082 28.0523 25.6129 28.2648 25.6594 28.2648C25.6992 28.2648 26.4098 27.5875 27.2332 26.764L28.734 25.2632L28.216 24.1011C27.9305 23.4636 27.6781 22.8859 27.6582 22.8129C27.625 22.7265 27.7777 22.348 28.1164 21.6707C28.4352 21.0398 28.7473 20.2894 28.9465 19.6718L29.2652 18.6757L30.5734 18.1777L31.875 17.673V16.5906V15.5148H27.9902H24.1055V15.8601C24.1055 16.4046 23.9195 17.414 23.7004 18.0648C22.1133 22.7996 16.8008 25.0308 12.3184 22.8328C10.3594 21.8699 8.87852 20.1632 8.16797 18.0515C7.95547 17.4074 7.76953 16.4046 7.76953 15.8601V15.5148H3.88477H0V16.5906Z" fill="white"></path></svg> 