<?xml version="1.0" encoding="UTF-8"?> <svg xmlns="http://www.w3.org/2000/svg" width="32" height="24" viewBox="0 0 32 24" fill="none"><path d="M5.40466 0.146772C4.32185 0.514155 3.54197 1.36494 3.24548 2.48642C2.6783 4.66494 4.599 6.81767 6.83552 6.5083C8.3115 6.30205 9.46521 5.06455 9.62634 3.51123C9.78748 2.01591 8.62087 0.41103 7.1449 0.0694284C6.64216 -0.046587 5.86873 -0.0143604 5.40466 0.146772Z" fill="white"></path><path d="M24.0188 0.25006C23.0327 0.56588 22.2335 1.38444 21.9434 2.37701C21.7952 2.8733 21.8081 3.69186 21.9692 4.20748C22.2141 5.00026 22.8135 5.7028 23.5805 6.08951C24.4635 6.53424 25.6237 6.48912 26.5067 5.96705C27.6475 5.29674 28.2663 3.77565 27.9311 2.49303C27.6411 1.38444 26.7001 0.443419 25.6366 0.198498C25.1919 0.0953727 24.4313 0.121154 24.0188 0.25006Z" fill="white"></path><path d="M15.1048 0.836461C13.3839 1.01693 11.7725 2.19642 11.0055 3.82064C10.3932 5.13548 10.3932 6.84994 11.012 8.17767C11.6565 9.55697 12.9843 10.6527 14.4538 11.0201C15.0919 11.1812 16.1102 11.1941 16.7677 11.0458C18.205 10.7236 19.5327 9.67943 20.1966 8.34525C20.6026 7.53314 20.7573 6.9015 20.7637 6.02494C20.7702 5.16127 20.6413 4.58119 20.2675 3.76908C19.3329 1.77103 17.2833 0.610875 15.1048 0.836461Z" fill="white"></path><path d="M3.36149 9.95679C2.05954 10.2404 0.983175 11.2136 0.390206 12.6509C0.0937215 13.3535 -0.0222942 14.114 0.0034871 15.113C0.022823 15.9123 0.0357137 15.9767 0.229073 16.3763C0.48044 16.8919 0.944503 17.3431 1.46013 17.5816C1.80173 17.7427 1.89841 17.7556 2.88454 17.775C3.74821 17.7943 3.98669 17.7814 4.21872 17.6912C4.60544 17.5429 4.89548 17.182 5.07595 16.6148C5.5529 15.1259 6.81618 13.3986 8.06013 12.522C8.84646 11.9742 9.05915 11.6326 9.00114 11.0138C8.95603 10.5884 8.69821 10.2275 8.28571 10.0212L7.957 9.86011L5.86228 9.86656C4.36052 9.86656 3.64509 9.89234 3.36149 9.95679Z" fill="white"></path><path d="M22.994 10.0406C22.3881 10.3564 22.1367 11.0847 22.4139 11.697C22.5363 11.9742 22.7426 12.174 23.3871 12.6316C24.341 13.3148 25.3207 14.8294 25.8492 16.4472C26.0941 17.1949 26.3391 17.53 26.7645 17.6912C26.9965 17.7814 27.2479 17.7943 28.2598 17.775C29.4457 17.7556 29.4908 17.7492 29.8775 17.5687C30.3674 17.3431 30.8637 16.8404 31.1086 16.3248C31.2762 15.9638 31.2826 15.9123 31.2826 14.8552C31.2826 13.9142 31.2568 13.6886 31.1344 13.2503C30.6574 11.5875 29.4973 10.3564 28.06 9.98902C27.6088 9.873 27.3445 9.86011 25.4496 9.86011H23.3356L22.994 10.0406Z" fill="white"></path><path d="M12.0497 12.9602C9.47799 13.4758 7.57017 15.867 7.26724 18.9479C7.17056 19.8824 7.22857 20.9137 7.38971 21.4422C7.64752 22.2672 8.23404 22.9246 9.06549 23.3178L9.56178 23.5563L15.5366 23.5756C21.4405 23.5885 21.5178 23.5885 21.911 23.4596C22.8842 23.1309 23.6061 22.4026 23.9413 21.3971C24.0444 21.1006 24.0637 20.8492 24.0637 19.9147C24.0573 18.6772 23.9864 18.1229 23.7028 17.2592C23.026 15.1709 21.6403 13.7078 19.7454 13.0762C19.2942 12.9215 19.2813 12.9215 15.8137 12.9151C13.8995 12.9086 12.2044 12.9279 12.0497 12.9602Z" fill="white"></path></svg> 