<?xml version="1.0" encoding="UTF-8"?> <svg xmlns="http://www.w3.org/2000/svg" width="27" height="27" viewBox="0 0 27 27" fill="none"><path d="M23.5614 0.0650177C23.0145 0.218143 22.6208 0.562675 22.3747 1.09314C22.2434 1.38299 22.2325 1.46502 22.2489 1.93533L22.2708 2.45486L19.952 4.43455L17.6333 6.41971L17.3544 6.31033C17.1356 6.2283 16.9825 6.21189 16.6653 6.2283C16.2278 6.25564 15.9325 6.37049 15.5606 6.6658L15.3528 6.82986L14.4122 6.50174C13.8927 6.32127 12.9903 6.00408 12.4052 5.79627L11.3388 5.42439L11.2677 5.09627C11.1309 4.49471 10.7974 4.09002 10.2122 3.81658C9.97704 3.70721 9.82392 3.67986 9.50126 3.67439C9.14032 3.67439 9.03642 3.70174 8.7247 3.85486C8.2872 4.06814 7.96454 4.41267 7.80595 4.8283C7.6911 5.14549 7.66376 5.63221 7.74579 5.92752L7.79501 6.09705L5.27392 8.30642C3.89032 9.51502 2.72548 10.5267 2.6872 10.5486C2.65439 10.576 2.5286 10.5541 2.41376 10.5049C2.14032 10.39 1.50595 10.39 1.1997 10.5049C0.160635 10.8822 -0.293271 12.0306 0.198917 13.026C0.395792 13.4252 0.647354 13.6658 1.07939 13.8681C1.4786 14.0541 2.12392 14.0595 2.5122 13.8845C2.85673 13.7314 3.24501 13.365 3.42001 13.026C3.55673 12.7799 3.56767 12.6978 3.56767 12.1455V11.5385L6.0286 9.38924C7.38485 8.20799 8.52782 7.20721 8.57704 7.16346C8.64814 7.1033 8.69735 7.1033 8.87782 7.17986C9.00907 7.24002 9.24423 7.27283 9.50126 7.27283C9.9661 7.2783 10.3708 7.13064 10.7099 6.82986L10.9067 6.66033L12.9247 7.3658C14.0294 7.75955 14.9427 8.07674 14.9481 8.07674C14.9536 8.07674 14.97 8.18611 14.9864 8.32283C15.063 8.8533 15.4513 9.37283 15.9817 9.65174C16.2169 9.77752 16.3208 9.79939 16.7474 9.79939C17.1739 9.79939 17.2778 9.77752 17.5458 9.64627C17.9122 9.47127 18.2731 9.09939 18.4263 8.74392C18.563 8.44314 18.6122 7.90721 18.5356 7.6283L18.4809 7.42049L20.7013 5.52283C21.9208 4.47283 22.9817 3.57596 23.0474 3.52127C23.1677 3.42283 23.1841 3.42283 23.4302 3.5158C24.0317 3.74549 24.8247 3.57049 25.2895 3.11111C25.6724 2.7283 25.8255 2.35096 25.8255 1.81502C25.8255 1.42674 25.8036 1.33377 25.645 1.01111C25.2622 0.22908 24.3872 -0.164669 23.5614 0.0650177Z" fill="white"></path><path d="M22.2981 7.32208C22.1559 7.39864 22.0083 7.52442 21.9426 7.63926C21.8333 7.83067 21.8333 7.8963 21.8333 16.4166V25.0025L21.959 25.1994C22.1833 25.5658 22.2543 25.5768 24.0645 25.5768C25.645 25.5768 25.6778 25.5768 25.8583 25.451C25.9622 25.3854 26.0879 25.2432 26.1426 25.1393C26.2301 24.9588 26.2356 24.4502 26.2247 16.351C26.2083 7.76505 26.2083 7.75411 26.0934 7.60645C26.0333 7.52442 25.9129 7.40411 25.8309 7.34395C25.6887 7.23458 25.5958 7.22911 24.1137 7.2127C22.5715 7.19629 22.5387 7.20176 22.2981 7.32208Z" fill="white"></path><path d="M7.70749 11.6315C7.60905 11.6916 7.48327 11.8174 7.42312 11.9158C7.31374 12.0908 7.31374 12.2057 7.31374 18.7025C7.31374 26.0635 7.2864 25.5604 7.69109 25.8065C7.88249 25.9322 7.92077 25.9322 9.50124 25.9322C11.2731 25.9322 11.295 25.9268 11.552 25.5877C11.6614 25.44 11.6614 25.3416 11.6778 18.7682C11.6887 12.1893 11.6887 12.0963 11.5794 11.9158C11.5192 11.8174 11.3934 11.6916 11.295 11.6315C11.1255 11.5275 11.0161 11.5221 9.50124 11.5221C7.9864 11.5221 7.87702 11.5275 7.70749 11.6315Z" fill="white"></path><path d="M15.052 13.9832C14.9918 14.0051 14.8715 14.1035 14.7786 14.202L14.6145 14.3715L14.5981 19.7692C14.5817 25.8012 14.5543 25.391 14.9645 25.6481C15.1504 25.7629 15.227 25.7684 16.5833 25.7848C17.5075 25.8012 18.1036 25.7848 18.284 25.7465C18.5629 25.6809 18.7708 25.5223 18.902 25.2653C18.9458 25.1778 18.9622 23.6574 18.9622 19.8512C18.9622 13.9449 18.984 14.3223 18.5848 14.0543C18.4043 13.9285 18.377 13.9285 16.7801 13.934C15.8887 13.934 15.1122 13.9559 15.052 13.9832Z" fill="white"></path><path d="M0.434077 18.6861C0.335639 18.7463 0.209858 18.8721 0.149702 18.9705C0.0457953 19.1455 0.0403265 19.2549 0.0403265 22.3229C0.0403265 25.9213 0.0184515 25.7572 0.477827 25.9979C0.707514 26.1182 0.756733 26.1236 2.22236 26.1236C3.59501 26.1236 3.75361 26.1127 3.96142 26.0143C4.09814 25.9541 4.24033 25.8338 4.30595 25.7299C4.40986 25.5549 4.41533 25.4619 4.41533 22.3502C4.41533 19.2549 4.40986 19.1455 4.30595 18.9705C4.2458 18.8721 4.12001 18.7463 4.02158 18.6861C3.85205 18.5822 3.74267 18.5768 2.22783 18.5768C0.712983 18.5768 0.603608 18.5822 0.434077 18.6861Z" fill="white"></path></svg> 