<?xml version="1.0" encoding="UTF-8"?> <svg xmlns="http://www.w3.org/2000/svg" width="29" height="29" viewBox="0 0 29 29" fill="none"><path d="M1.9541 0.0792961C0.826953 0.356834 0 1.42168 0 2.58848C0 2.93965 0.147266 3.48906 0.322852 3.78926C1.03652 5.01836 2.56016 5.45449 3.78926 4.78613C4.15176 4.58789 4.64453 4.07812 4.83711 3.69297L4.98438 3.39844H6.0832H7.18203L7.73145 4.36699C8.22422 5.22793 8.2752 5.34687 8.18457 5.39219C8.13359 5.42617 7.83906 5.64707 7.53887 5.89629C6.8252 6.46269 6.0209 7.3123 5.52813 8.00332L5.14297 8.55273H2.57148H0V9.40234V10.252H2.12969C3.81191 10.252 4.25371 10.2689 4.23105 10.3199C3.91387 11.0789 3.56836 12.4609 3.4834 13.2652L3.44375 13.6504H1.72188H0V14.5V15.3496H1.72188H3.44375L3.4834 15.7348C3.56836 16.5391 3.91387 17.9211 4.23105 18.6744C4.25371 18.7311 3.81191 18.748 2.12969 18.748H0V19.5977V20.4473H2.57148H5.14297L5.52813 20.9967C6.0209 21.6877 6.8252 22.5373 7.53887 23.1037C7.83906 23.3529 8.13359 23.5738 8.18457 23.6078C8.2752 23.6531 8.22422 23.7721 7.73145 24.633L7.18203 25.6016H6.0832H4.98438L4.83711 25.307C4.51426 24.6727 3.81191 24.1176 3.12656 23.959C2.71309 23.8627 2.0334 23.9137 1.62559 24.0723C0.764648 24.4008 0.101953 25.2787 0.0169922 26.202C-0.141602 27.8955 1.46699 29.3172 3.10957 28.9377C3.79492 28.7791 4.61055 28.1391 4.84844 27.567L4.95605 27.3008L6.57031 27.2895L8.17891 27.2725L8.96055 25.9131C9.39668 25.1541 9.77051 24.5594 9.81016 24.565C9.8498 24.5707 10.099 24.6613 10.3596 24.7746C10.6258 24.8822 11.0902 25.0408 11.3961 25.1314L11.9512 25.29V27.1422V29H12.8008H13.6504V27.2838V25.5732H14.5H15.3496V27.2838V29H16.1992H17.0488V27.1309C17.0488 25.3863 17.0545 25.2617 17.1508 25.2617C17.2527 25.2617 18.6971 24.7689 19.0426 24.6217L19.2521 24.5254L20.0338 25.9018L20.8211 27.2725L22.4297 27.2895L24.0439 27.3008L24.1516 27.5613C24.2875 27.8955 24.7689 28.4109 25.1541 28.6432C26.6721 29.5494 28.6545 28.6148 28.9547 26.8477C29.2152 25.3297 28.0088 23.9023 26.4568 23.9023C25.4996 23.9023 24.6387 24.4234 24.1855 25.2674L24.01 25.6016H22.9168H21.818L21.2686 24.633C20.9684 24.1006 20.7305 23.6645 20.7361 23.6531C21.5291 23.149 22.8771 21.8406 23.4719 20.9967L23.857 20.4473H26.4285H29V19.5977V18.748H26.8703C24.8652 18.748 24.7406 18.7424 24.7803 18.6461C25.0918 17.8814 25.4373 16.5277 25.5166 15.7291L25.5563 15.3496H27.2781H29V14.5V13.6504H27.2781H25.5563L25.5166 13.2652C25.4373 12.4723 25.0918 11.1186 24.7803 10.3482C24.7406 10.2576 24.8652 10.252 26.8703 10.252H29V9.40234V8.55273H26.4285H23.857L23.4719 8.00332C22.8771 7.15937 21.5291 5.85098 20.7361 5.34687C20.7305 5.33555 20.9684 4.89941 21.2686 4.36699L21.818 3.39844H22.9168H24.0156L24.1629 3.69297C24.3441 4.0498 24.8086 4.54824 25.1371 4.74082C26.1906 5.36387 27.5217 5.1543 28.3486 4.23672C29.4305 3.03027 29.085 1.07051 27.6576 0.328514C26.5588 -0.24922 25.3977 -0.0453129 24.5537 0.860937C24.3895 1.03652 24.2082 1.29707 24.1516 1.43867L24.0439 1.69922L22.4297 1.71055L20.8211 1.72754L20.0338 3.09824L19.2521 4.47461L19.0426 4.37832C18.6971 4.23105 17.2527 3.73828 17.1508 3.73828C17.0545 3.73828 17.0488 3.61367 17.0488 1.86914V0H16.1992H15.3496V1.71055V3.42676H14.5H13.6504V1.71055V0H12.8008H11.9512V1.86914C11.9512 3.50039 11.9398 3.73828 11.8662 3.73828C11.7246 3.73828 10.5352 4.13477 10.1443 4.31035C9.94609 4.40098 9.76484 4.46328 9.74785 4.44062C9.73086 4.42363 9.36836 3.80625 8.94922 3.06992L8.17891 1.72754L6.57031 1.71055L4.95605 1.69922L4.84844 1.43867C4.7125 1.10449 4.23105 0.589062 3.8459 0.356834C3.29082 0.0283203 2.58848 -0.079298 1.9541 0.0792961ZM10.4729 11.2092C11.1186 11.4074 11.685 11.8832 11.9852 12.4723C12.2627 13.0217 12.291 13.2822 12.291 15.6725V17.8984H11.4414H10.5918V17.0488V16.1936L9.73086 16.2105L8.86426 16.2275L8.84727 17.0602L8.83027 17.8984H8.01465H7.19336V15.5195C7.19336 13.1746 7.19336 13.1406 7.32363 12.7838C7.6125 11.9852 8.31484 11.3508 9.10215 11.1639C9.48164 11.0732 10.1047 11.0959 10.4729 11.2092ZM16.9299 11.2092C17.4 11.3564 17.7059 11.549 18.0514 11.9059C18.5611 12.4496 18.7764 13.0443 18.7367 13.7863C18.6857 14.5793 18.3459 15.208 17.6945 15.7064C17.2301 16.0576 16.8959 16.1539 16.0746 16.1879L15.3496 16.2105V17.0545V17.8984H14.5H13.6504V14.5V11.1016H15.1174C16.3975 11.1016 16.6297 11.1129 16.9299 11.2092ZM21.5801 14.5V17.8984H20.7305H19.8809V14.5V11.1016H20.7305H21.5801V14.5Z" fill="white"></path><path d="M9.31738 12.9084C8.95488 13.1293 8.8416 13.4182 8.83594 14.1148V14.5H9.71387H10.5918V14.0016C10.5918 13.5881 10.5691 13.4578 10.4615 13.2539C10.2406 12.8348 9.69688 12.6705 9.31738 12.9084Z" fill="white"></path><path d="M15.3496 13.6504V14.5H15.8764C16.6693 14.5 16.9922 14.2791 17.0318 13.6957C17.0602 13.3445 16.9355 13.0953 16.641 12.9141C16.4881 12.8234 16.3521 12.8008 15.9047 12.8008H15.3496V13.6504Z" fill="white"></path></svg> 