<?xml version="1.0" encoding="UTF-8"?> <svg xmlns="http://www.w3.org/2000/svg" width="220" height="100" viewBox="0 0 220 100" fill="none"><rect width="220" height="100" rx="8" fill="#121B1F"></rect><g clip-path="url(#clip0_1_1596)"><path d="M45.2998 47.3683L51.2041 40.9668L57.1109 47.3735L60.5445 43.6467L51.2041 33.5132L41.8638 43.6441L45.2998 47.3683Z" fill="white"></path><path d="M36 49.999L39.4347 46.2736L42.8695 49.999L39.4347 53.7245L36 49.999Z" fill="white"></path><path d="M45.2999 52.6329L51.2043 59.0369L57.1109 52.6302L60.547 56.3518L60.5445 56.3545L51.2043 66.488L41.8639 56.3597L41.8591 56.3545L45.2999 52.6329Z" fill="white"></path><path d="M59.5308 49.999L62.9656 46.2736L66.4003 49.999L62.9656 53.7245L59.5308 49.999Z" fill="white"></path><path d="M54.6854 49.9964L51.2014 46.215L48.6251 49.0094L48.3273 49.3298L47.7174 49.9912L47.7126 49.9964L47.7174 50.0043L51.2014 53.7806L54.6854 49.9991L54.6879 49.9964H54.6854Z" fill="white"></path><path d="M71.7551 41.5052H79.2275C81.0811 41.5052 82.4834 42.0261 83.4342 43.0678C83.7924 43.4526 84.0748 43.9124 84.2642 44.4192C84.4537 44.926 84.5462 45.4692 84.5364 46.016V46.0654C84.5428 46.5133 84.4852 46.9597 84.3658 47.3885C84.2594 47.7576 84.1051 48.1084 83.9072 48.4302C83.7228 48.7337 83.4997 49.0072 83.2445 49.2428C82.9952 49.4756 82.7221 49.6765 82.4305 49.8417C83.2713 50.1594 84.0273 50.696 84.6324 51.4044C85.167 52.0641 85.4343 52.9757 85.4343 54.1389V54.1884C85.4495 54.9149 85.3038 55.6348 85.0093 56.2876C84.7239 56.8889 84.3058 57.4044 83.7919 57.7876C83.2111 58.21 82.5643 58.5145 81.883 58.6861C81.0737 58.8942 80.244 58.9949 79.4123 58.9856H71.7551V41.5052ZM78.4782 48.5734C79.1248 48.6073 79.7681 48.4565 80.344 48.136C80.5685 47.9937 80.7518 47.786 80.8733 47.5365C80.9946 47.287 81.0491 47.0057 81.0307 46.7244V46.6749C81.0426 46.4156 80.994 46.1573 80.8895 45.9238C80.785 45.6902 80.628 45.4892 80.4328 45.3389C80.0342 45.0316 79.4587 44.8778 78.7063 44.8778H75.2103V48.5734H78.4782ZM79.422 55.6182C80.0659 55.6573 80.7071 55.4974 81.2708 55.1572C81.4904 55.0042 81.6681 54.7901 81.7855 54.5373C81.9029 54.2845 81.9557 54.0021 81.9383 53.7196V53.6701C81.9469 53.4017 81.8948 53.1349 81.7864 52.8934C81.6779 52.6518 81.5166 52.4429 81.3164 52.2846C80.9034 51.9374 80.2359 51.7637 79.3139 51.7637H75.2103V55.6182H79.422Z" fill="white"></path><path d="M89.8857 41.5052H93.4323V58.9908H89.8857V41.5052Z" fill="white"></path><path d="M98.8005 41.5052H102.071L109.629 52.2664V41.5052H113.13V58.9908H110.112L102.306 47.8754V58.9908H98.8005V41.5052Z" fill="white"></path><path d="M123.866 41.3815H127.131L134.039 58.9921H130.337L128.862 55.0698H122.046L120.571 58.9921H116.955L123.866 41.3815ZM127.597 51.6738L125.45 46.0016L123.313 51.6738H127.597Z" fill="white"></path><path d="M137.875 41.5052H141.145L148.699 52.2664V41.5052H152.2V58.9908H149.181L141.375 47.8754V58.9908H137.875V41.5052Z" fill="white"></path><path d="M164.964 59.296C163.833 59.3065 162.712 59.0691 161.669 58.598C160.687 58.158 159.796 57.5092 159.048 56.6899C158.3 55.8704 157.711 54.8969 157.316 53.8268C156.899 52.7076 156.688 51.5105 156.694 50.3032V50.2537C156.676 47.8739 157.52 45.5815 159.045 43.8704C159.795 43.0347 160.693 42.372 161.685 41.9224C162.765 41.4374 163.925 41.1955 165.094 41.2114C165.784 41.2058 166.474 41.273 167.154 41.412C167.735 41.5312 168.303 41.7153 168.848 41.9615C169.344 42.1877 169.816 42.4724 170.253 42.8105C170.681 43.1402 171.082 43.5079 171.454 43.9095L169.199 46.7327C168.623 46.1561 167.977 45.668 167.279 45.282C166.593 44.9261 165.839 44.7479 165.079 44.7612C164.446 44.7539 163.818 44.8927 163.239 45.1683C162.659 45.444 162.141 45.8503 161.718 46.3603C161.297 46.8688 160.969 47.4579 160.747 48.0973C160.516 48.7731 160.399 49.4887 160.404 50.2095V50.2589C160.401 50.9787 160.518 51.6931 160.747 52.3684C160.965 53.0101 161.291 53.6025 161.708 54.116C162.128 54.6321 162.646 55.0444 163.225 55.3248C163.806 55.6052 164.434 55.7472 165.069 55.7411C165.877 55.7687 166.68 55.58 167.406 55.1916C168.097 54.7833 168.734 54.2791 169.305 53.6915L171.562 56.1656C171.164 56.6347 170.733 57.07 170.273 57.4677C169.821 57.8552 169.33 58.1863 168.81 58.4548C168.256 58.7377 167.673 58.9467 167.072 59.0772C166.378 59.2281 165.671 59.3015 164.964 59.296Z" fill="white"></path><path d="M175.742 41.5052H187.875V44.9273H179.232V48.4745H186.843V51.8966H179.243V55.5688H187.996V58.9908H175.75L175.742 41.5052Z" fill="white"></path></g><defs><clipPath id="clip0_1_1596"><rect width="152" height="40" fill="white" transform="translate(36 30)"></rect></clipPath></defs></svg> 