<?xml version="1.0" encoding="UTF-8"?> <svg xmlns="http://www.w3.org/2000/svg" width="220" height="100" viewBox="0 0 220 100" fill="none"><rect width="220" height="100" rx="8" fill="#121B1F"></rect><path d="M82.7391 54.9525L74.2857 40.2935C72.4321 37.2399 67.9188 37.204 66.1278 40.4188L57.2625 55.66C55.6059 58.4539 57.6566 61.9642 60.9699 61.9642H78.7452C82.0854 61.9642 84.5927 58.3643 82.7391 54.9525Z" fill="white"></path><path d="M70.5516 56.0898L70.0322 55.1764C69.5486 54.3346 68.474 52.5078 68.474 52.5078L61.3191 40.0964C59.4744 37.3383 55.0865 37.1055 53.2329 40.5889L44.9138 54.9794C43.1945 58.0061 45.2362 61.9373 48.9793 61.9642H66.6562H74.1962H78.6826C74.0977 62 72.6291 59.6269 70.5516 56.0898Z" fill="white"></path><path d="M70.5515 56.0898L70.0321 55.1764C69.5485 54.3347 68.4739 52.5079 68.4739 52.5079L63.8085 44.4127L57.2267 55.6958C55.57 58.4897 57.6207 62 60.934 62H66.6203H74.1603H78.6735C74.0618 61.9642 72.629 59.627 70.5515 56.0898Z" fill="url(#paint0_linear_1_1620)"></path><path d="M116.597 60.612V40.786H133.074V42.0397C133.074 43.0337 132.277 43.8307 131.283 43.8307H120.707V49.1588H131.283V52.2034H120.707V57.5316H131.283C132.268 57.5316 133.074 58.3285 133.074 59.3225V60.5762L116.597 60.612Z" fill="white"></path><path d="M156.742 40.786H152.864C152.139 40.786 151.494 41.0905 151.038 41.6636L146.354 47.5648L141.671 41.7084C141.214 41.1352 140.569 40.8308 139.844 40.8308H135.967L143.847 50.7259L135.967 60.621H139.844C140.569 60.621 141.214 60.3165 141.671 59.7434L146.354 53.8869L151.073 59.7882C151.53 60.3165 152.175 60.6658 152.9 60.6658H156.778L148.897 50.7707L156.742 40.786Z" fill="white"></path><path d="M103.693 58.5166L109.093 49.0782V60.5672H113.204V40.7502H110.651C109.854 40.7502 109.093 41.171 108.708 41.8964L102.243 53.6899L95.7774 41.8874C95.3923 41.1621 94.6312 40.7412 93.8342 40.7412H91.291V60.5672H95.4013V49.0782L100.801 58.5166H103.693Z" fill="white"></path><path d="M167.479 60.8359C161.774 60.9075 157.127 56.4211 157.091 50.7169C157.091 47.5917 158.04 45.0037 159.831 43.2217C161.622 41.4665 164.21 40.5173 167.291 40.5173C170.908 40.5173 173.756 41.771 175.816 44.2067L174.526 45.3082C173.729 45.9887 172.547 46.0335 171.67 45.3888C170.523 44.5112 169.082 44.0903 167.443 44.0903C163.413 44.0903 161.013 46.526 161.013 50.6363C161.013 54.7824 163.485 57.3345 167.443 57.3345C169.117 57.3345 170.523 56.8778 171.67 56.045C172.511 55.4003 173.684 55.4361 174.526 56.1256L175.816 57.2271C173.756 59.618 171.016 60.8359 167.479 60.8359Z" fill="white"></path><defs><linearGradient id="paint0_linear_1_1620" x1="55.2895" y1="50.593" x2="74.5448" y2="58.1526" gradientUnits="userSpaceOnUse"><stop stop-color="#999999" stop-opacity="0"></stop><stop offset="1" stop-color="white"></stop></linearGradient></defs></svg> 