<?xml version="1.0" encoding="UTF-8"?> <svg xmlns="http://www.w3.org/2000/svg" width="29" height="26" viewBox="0 0 29 26" fill="none"><path d="M3.04375 0.0387118C1.45 0.276212 0.23125 1.53871 0.04375 3.13871L0 3.47621H14.0188H28.0375L27.9937 3.13871C27.825 1.70121 26.8563 0.557462 25.425 0.107462C25.1438 0.0199618 23.925 0.00746179 14.2375 0.00121164C8.25625 -0.00503826 3.21875 0.0137117 3.04375 0.0387118Z" fill="white"></path><path d="M0.0187988 7.03871V9.10121H14.0188H28.0188V7.03871V4.97621H14.0188H0.0187988V7.03871Z" fill="white"></path><path d="M0.0187988 13.9637C0.0187988 17.1137 0.0250488 17.3637 0.143799 17.8137C0.300049 18.4387 0.525049 18.845 0.981299 19.3325C1.4063 19.795 1.8813 20.095 2.48755 20.3012L2.92505 20.445H9.4188H15.9125L15.9001 19.82C15.8876 19.0887 15.9875 18.6512 16.3063 17.9762C16.5188 17.5387 16.6688 17.37 18.4813 15.5637C20.5751 13.4762 20.7501 13.3387 21.6751 13.0637C22.2688 12.8887 23.2313 12.9137 23.8688 13.12C24.6563 13.3825 25.0438 13.6762 26.6001 15.2137L28.0188 16.6262V13.6137V10.6012H14.0188H0.0187988V13.9637ZM7.4563 11.9637C7.95005 12.2075 8.12505 12.8887 7.7938 13.2887C7.4813 13.6512 7.42505 13.6637 5.70005 13.6637C4.21255 13.6637 4.1188 13.6575 3.8938 13.5325C3.56255 13.345 3.4313 13.0762 3.4688 12.67C3.4938 12.445 3.5438 12.295 3.65005 12.1825C3.93755 11.8762 4.06255 11.8575 5.7063 11.8512C7.0438 11.8512 7.26255 11.8637 7.4563 11.9637ZM10.3188 15.4012C10.875 15.8012 10.85 16.6387 10.2688 16.9262C10.0688 17.0262 9.7813 17.0387 7.0938 17.0387C3.8188 17.0387 3.8188 17.0387 3.57505 16.6387C3.3688 16.3012 3.45005 15.7137 3.7313 15.4825C4.0188 15.2387 4.21255 15.2262 7.2063 15.245L10.1125 15.2575L10.3188 15.4012Z" fill="white"></path><path d="M22.2313 14.4763C21.6125 14.6013 21.425 14.7451 19.5938 16.5638C17.4688 18.6763 17.425 18.7388 17.425 19.7576C17.425 20.7701 17.45 20.8013 19.5 22.8638C21.3563 24.7263 21.5875 24.9076 22.3 25.0326C22.775 25.1201 23.2938 25.0388 23.7625 24.8138C24.0438 24.6763 24.4563 24.3013 25.8438 22.9201C27.4125 21.3576 27.5938 21.1513 27.7813 20.7576C27.9688 20.3638 27.9875 20.2638 27.9875 19.7576C27.9875 19.2513 27.9688 19.1513 27.7813 18.7576C27.5938 18.3638 27.4063 18.1576 25.8438 16.5951C24.0188 14.7701 23.8375 14.6263 23.1563 14.4826C22.7875 14.4076 22.6063 14.4013 22.2313 14.4763ZM23.1813 16.6576C23.5375 16.8763 23.5813 17.0701 23.5813 18.4763C23.5813 19.5076 23.5625 19.7763 23.4813 19.9513C23.2 20.5326 22.3375 20.5763 21.9438 20.0263C21.8063 19.8263 21.8 19.7826 21.8 18.4763C21.8 17.2451 21.8125 17.1201 21.925 16.9513C22.1938 16.5513 22.7813 16.4138 23.1813 16.6576ZM23.1 21.1326C23.4438 21.3013 23.55 21.5138 23.55 22.0076C23.55 22.3451 23.525 22.4826 23.425 22.6138C23.0313 23.1388 22.2125 23.0888 21.9188 22.5263C21.775 22.2576 21.775 21.7576 21.9188 21.4888C22.1313 21.0826 22.6688 20.9201 23.1 21.1326Z" fill="white"></path></svg> 