<?xml version="1.0" encoding="UTF-8"?> <svg xmlns="http://www.w3.org/2000/svg" width="220" height="100" viewBox="0 0 220 100" fill="none"><rect width="220" height="100" rx="8" fill="#121B1F"></rect><g clip-path="url(#clip0_1_1652)"><path d="M59.7378 44.4024C59.7168 45.8812 59.5699 47.3553 59.2988 48.808C57.3933 58.936 51.705 64 42.2339 64H36.2476V63.9269L37.7141 56.9377H41.8502C46.9792 56.9377 50.0846 53.9563 51.1663 47.9934C51.2444 47.611 51.3061 47.2253 51.3549 46.8363L59.5817 41.9751C59.6887 42.7795 59.7408 43.5906 59.7378 44.4024Z" fill="white"></path><path d="M56.7266 35.6176L49.3486 39.9801C48.321 39.2752 46.925 38.9216 45.1604 38.9194H33.2429L33.2787 38.7465L34.6867 32H47.0431C48.6204 31.9819 50.1927 32.1855 51.7158 32.6052C53.4674 33.0831 55.076 33.997 56.3982 35.2652C56.512 35.3915 56.6193 35.5013 56.7266 35.6176Z" fill="white"></path><path d="M44.9654 44.9277L43.8728 51.907H38.7612L36.2639 63.9269L36.2476 64.0001H25L29.2239 58.1746L31.9944 44.9277H44.9654Z" fill="white"></path><path d="M77.5831 39.9567C82.5485 39.9567 85.8815 44.0631 85.0035 49.1405C84.5833 51.4112 83.478 53.4902 81.8429 55.0856C81.6575 55.2685 81.4461 55.4513 81.2348 55.6375C79.3533 57.3415 76.9387 58.3024 74.4257 58.3474H65.4348L68.6085 39.9335L77.5831 39.9567ZM69.1873 55.0856H74.9753C78.1652 55.0856 81.2218 52.4256 81.7843 49.1671C82.3469 45.9085 80.2073 43.2452 77.0271 43.2452H71.2391L69.1873 55.0856Z" fill="white"></path><path d="M84.7271 58.3474L87.904 39.9335H91.1199L87.943 58.3474H84.7271Z" fill="white"></path><path d="M94.0335 49.1405C93.471 52.4023 95.6106 55.059 98.8005 55.059H104.592L105.2 51.5345H99.4086L99.9776 48.246H108.982L107.239 58.3474H98.2347C93.2694 58.3474 89.9429 54.2178 90.8176 49.1405C91.6923 44.0631 96.4463 39.9335 101.415 39.9335H110.419L109.85 43.2219H100.843C97.6527 43.2219 94.5863 45.8786 94.0335 49.1405Z" fill="white"></path><path d="M108.526 58.3474L111.7 39.9335H114.916L111.742 58.3474H108.526Z" fill="white"></path><path d="M134.237 39.9335L133.668 43.2219H120.522C120.062 43.2418 119.622 43.4182 119.271 43.723C118.921 44.0278 118.68 44.4436 118.587 44.9044L118.291 46.6301H129.867L129.301 49.9185H117.699L116.242 58.3641H113.052L115.371 44.921C115.842 42.1845 118.389 39.9335 121.065 39.9335H134.237Z" fill="white"></path><path d="M132.322 58.3474L135.496 39.9335H138.712L135.538 58.3474H132.322Z" fill="white"></path><path d="M157.994 39.9568L154.821 58.3741L152.04 55.847L142.061 46.7199L140.051 58.3574H136.835L140.003 39.9933L142.783 42.5204L152.785 51.6475L154.808 39.9169L157.994 39.9568Z" fill="white"></path><path d="M161.652 44.9044L161.356 46.6301H172.932L172.367 49.9185H160.791L160.189 53.3898C160.145 53.5954 160.146 53.8087 160.195 54.0135C160.243 54.2182 160.336 54.4091 160.467 54.5716C160.598 54.7341 160.763 54.8639 160.951 54.9512C161.138 55.0386 161.342 55.0811 161.548 55.0756H174.692L174.126 58.3641H160.979C158.303 58.3641 156.528 56.1263 156.999 53.3765L158.462 44.9077C158.934 42.1712 161.48 39.9202 164.156 39.9202H177.303L176.734 43.2086H163.587C163.125 43.2281 162.683 43.4059 162.332 43.7135C161.981 44.0211 161.742 44.4406 161.652 44.9044Z" fill="white"></path><path d="M174.763 58.3741H174.815L174.757 58.424L174.763 58.3741ZM196 39.9568L187.435 49.1904L192.787 58.3741H188.723L184.941 51.8737L178.906 58.3741H174.841L183.357 49.1904L177.966 39.9568H182.031L185.842 46.5071L191.909 39.9568H196ZM192.748 58.424V58.3741H192.787L192.748 58.424Z" fill="white"></path></g><defs><clipPath id="clip0_1_1652"><rect width="171" height="32" fill="white" transform="translate(25 32)"></rect></clipPath></defs></svg> 