<?xml version="1.0" encoding="UTF-8"?> <svg xmlns="http://www.w3.org/2000/svg" width="34" height="34" viewBox="0 0 34 34" fill="none"><path d="M9.64208 3.54609C5.74403 5.49844 2.45692 7.17188 2.34403 7.26484C1.99871 7.55703 1.96551 7.74961 2.012 9.5293C2.15809 15.0477 3.53934 20.4332 5.87684 24.5371C7.71629 27.7711 10.0671 30.268 13.0487 32.1473C14.3237 32.9508 16.555 34 16.9999 34C17.5245 34 20.0014 32.7914 21.4093 31.8484C22.7241 30.9652 23.3284 30.4738 24.5104 29.2918C26.0643 27.7379 27.1932 26.2371 28.289 24.2449C30.58 20.0812 32.0011 14.2043 32.0077 8.88515C32.0077 7.80273 31.9679 7.57695 31.7222 7.31133C31.6425 7.225 28.3554 5.54492 24.4175 3.5793C18.5737 0.657421 17.2124 0 16.9999 0C16.7874 0 15.4327 0.65078 9.64208 3.54609ZM22.4319 7.06562C26.5358 9.11758 27.6913 9.72187 27.7909 9.86797C27.9702 10.1469 27.9835 10.5387 27.8573 11.7539C27.4124 16.1832 26.1307 20.2539 24.2315 23.2953C23.4944 24.4906 22.7905 25.3672 21.7214 26.4363C20.5659 27.5852 19.6761 28.2824 18.4276 29.0129C17.3386 29.6504 17.0995 29.7301 16.7077 29.6039C16.2761 29.4578 14.8749 28.6211 14.0448 28.0035C13.1085 27.3195 11.4085 25.6195 10.7179 24.6898C8.23426 21.3496 6.69364 17 6.14247 11.7937C6.01629 10.5984 6.02957 10.1469 6.20887 9.87461C6.30848 9.72187 7.43739 9.13086 11.5679 7.06562C14.9147 5.39219 16.8737 4.44922 16.9999 4.44922C17.1261 4.44922 19.085 5.39219 22.4319 7.06562Z" fill="#00D3C8"></path><path d="M12.5375 8.80547L8.10156 11.0234V11.2824C8.10156 12.0727 8.50664 14.4633 8.91172 16.0371C10.1203 20.7852 12.3648 24.3844 15.5059 26.609C16.1234 27.0473 16.8871 27.4922 17.0066 27.4922C17.1594 27.4922 18.1422 26.8813 18.8262 26.3633C21.8809 24.0523 24.0258 20.4465 25.168 15.7051C25.5465 14.1645 25.8984 12.0129 25.8984 11.2891V11.0234L21.4492 8.79883C19.0055 7.57695 16.9934 6.57422 16.9867 6.58086C16.9734 6.58086 14.9746 7.5836 12.5375 8.80547Z" fill="#00D3C8"></path></svg> 