<?xml version="1.0" encoding="UTF-8"?> <svg xmlns="http://www.w3.org/2000/svg" width="26" height="26" viewBox="0 0 26 26" fill="none"><g clip-path="url(#clip0_1_2409)"><path d="M7.8457 0.0761714C7.75937 0.121875 6.45937 1.38633 4.95117 2.89453L2.20898 5.63672H8.20117H14.1934L11.4766 2.91484C9.64844 1.08164 8.69375 0.1625 8.55664 0.0964842C8.31289 -0.0152345 8.05391 -0.0253911 7.8457 0.0761714Z" fill="white"></path><path d="M12.9492 0.0812497C12.8527 0.121875 12.5836 0.345312 12.35 0.573828L11.9336 0.990234L14.2543 3.31094L16.5801 5.63672H17.9258H19.2715L16.5547 2.91484C15.0617 1.42188 13.7516 0.152343 13.65 0.0964842C13.4266 -0.0203128 13.193 -0.0253911 12.9492 0.0812497Z" fill="white"></path><path d="M0.477344 7.43437C0.391016 7.475 0.253906 7.59179 0.172656 7.69844L0.0253906 7.88633L0.0101562 16.6004L0 25.3145L0.111719 25.543C0.198047 25.7105 0.289453 25.802 0.457031 25.8832L0.680469 26H10.4965C17.4637 26 20.3836 25.9848 20.5766 25.9441C21.252 25.802 21.9832 25.2586 22.3031 24.6492C22.5672 24.1566 22.5977 23.923 22.5977 22.3641V20.927L20.15 20.9117C17.7836 20.8914 17.682 20.8863 17.291 20.7746C16.8137 20.6375 16.2906 20.3836 15.8691 20.084C14.6605 19.2207 13.9699 17.6211 14.168 16.1484C14.3609 14.6961 15.2902 13.4367 16.6156 12.8273C17.3824 12.4719 17.3316 12.477 20.0992 12.4566L22.5977 12.4363V11.0043C22.5977 9.41484 22.5723 9.21172 22.2828 8.67344C21.973 8.09453 21.3484 7.60703 20.6984 7.43437C20.3125 7.33281 0.710938 7.33281 0.477344 7.43437Z" fill="white"></path><path d="M23.7148 7.76445C24.0094 8.25703 24.2125 8.87656 24.2734 9.47578C24.2988 9.72461 24.3242 10.4914 24.3242 11.182V12.4414H25.1621H26V11.0449C26 9.53164 25.9695 9.29297 25.7359 8.79531C25.3703 8.02344 24.4156 7.36328 23.659 7.36328H23.4711L23.7148 7.76445Z" fill="white"></path><path d="M17.8394 14.1934C17.3621 14.2949 16.8543 14.5895 16.5293 14.9398C16.2144 15.2801 16.0468 15.5746 15.9199 16.0215C15.8031 16.4227 15.8386 17.1742 15.991 17.5805C16.2297 18.2051 16.8187 18.7941 17.4586 19.0531L17.748 19.1699L21.8765 19.1852L26 19.1953V16.6562V14.1172L22.0797 14.1223C18.982 14.1223 18.0883 14.1375 17.8394 14.1934ZM18.7941 15.9605C19.3222 16.316 19.3425 17.0066 18.8347 17.3773C18.4996 17.6262 17.9207 17.5145 17.6871 17.159C17.4129 16.7477 17.5144 16.2348 17.9207 15.9605C18.1593 15.798 18.5554 15.798 18.7941 15.9605Z" fill="white"></path><path d="M24.309 22.4808C24.2836 24.1616 24.2531 24.3901 23.984 25.0351C23.8469 25.3651 23.6844 25.6647 23.5219 25.8933L23.4355 26.0151L23.7199 25.9847C24.7914 25.8577 25.6496 25.1011 25.9238 24.0448C25.9848 23.8112 26 23.4354 26 22.3335V20.9218H25.1672H24.3344L24.309 22.4808Z" fill="white"></path></g><defs><clipPath id="clip0_1_2409"><rect width="26" height="26" fill="white"></rect></clipPath></defs></svg> 