<?xml version="1.0" encoding="UTF-8"?> <svg xmlns="http://www.w3.org/2000/svg" width="220" height="100" viewBox="0 0 220 100" fill="none"><rect width="220" height="100" rx="8" fill="#121B1F"></rect><g clip-path="url(#clip0_1_1668)"><path d="M149.401 49.9853C149.401 49.1692 149.401 48.4015 149.374 47.6925C149.356 47.0236 149.29 46.357 149.175 45.6976C149.068 45.0956 148.879 44.5109 148.614 43.9597C148.333 43.3913 147.958 42.8742 147.505 42.4301C146.862 41.7741 146.097 41.2491 145.253 40.8844C144.34 40.5159 143.361 40.3333 142.376 40.3472C141.387 40.3344 140.405 40.517 139.487 40.8844C138.638 41.2442 137.868 41.7669 137.222 42.4228C136.769 42.8666 136.396 43.3838 136.118 43.9523C135.854 44.5037 135.668 45.0885 135.565 45.6903C135.453 46.3498 135.389 47.0165 135.373 47.6852C135.356 48.3941 135.347 49.1619 135.351 49.978C135.356 50.7941 135.351 51.556 135.373 52.2694C135.389 52.938 135.453 53.6047 135.565 54.2642C135.668 54.8661 135.854 55.4509 136.118 56.0022C136.397 56.5701 136.77 57.0871 137.222 57.5318C137.867 58.1882 138.637 58.7101 139.487 59.0672C140.404 59.437 141.387 59.6206 142.376 59.6074C143.362 59.6218 144.34 59.4381 145.253 59.0672C146.098 58.7073 146.863 58.1856 147.505 57.5318C147.957 57.0868 148.332 56.5699 148.614 56.0022C148.879 55.451 149.068 54.8663 149.175 54.2642C149.288 53.6068 149.354 52.9421 149.371 52.2752C149.393 51.5619 149.404 50.7986 149.398 49.9839L149.401 49.9853ZM145.686 49.9853C145.686 50.8896 145.673 51.6426 145.642 52.2415C145.625 52.7334 145.576 53.2237 145.495 53.7094C145.44 54.0329 145.34 54.3475 145.2 54.6444C145.086 54.8837 144.937 55.1049 144.758 55.3006C144.481 55.616 144.138 55.8666 143.753 56.0345C143.319 56.2193 142.852 56.3132 142.38 56.3105C141.907 56.3126 141.437 56.2187 141.001 56.0345C140.606 55.8698 140.254 55.619 139.969 55.3006C139.789 55.1058 139.64 54.8844 139.527 54.6444C139.39 54.3472 139.296 54.0325 139.247 53.7094C139.168 53.2235 139.119 52.7333 139.099 52.2415C139.073 51.6426 139.06 50.8905 139.06 49.9853C139.06 49.0811 139.073 48.3266 139.099 47.7277C139.119 47.2359 139.168 46.7457 139.247 46.2598C139.296 45.9367 139.39 45.622 139.527 45.3248C139.64 45.085 139.789 44.8637 139.969 44.6686C140.254 44.3507 140.606 44.1 141.001 43.9347C141.437 43.7485 141.906 43.6545 142.38 43.6587C142.852 43.6539 143.32 43.7479 143.753 43.9347C144.138 44.1031 144.481 44.3536 144.758 44.6686C144.937 44.8646 145.086 45.0857 145.2 45.3248C145.34 45.6217 145.44 45.9363 145.495 46.2598C145.575 46.7455 145.625 47.2358 145.642 47.7277C145.675 48.3252 145.686 49.0797 145.686 49.9853Z" fill="white"></path><path d="M178.997 40.8375C178.995 40.659 178.85 40.5147 178.671 40.5131H175.607C175.427 40.5139 175.282 40.6586 175.281 40.8375V52.1109L167.808 40.6041C167.758 40.5263 167.714 40.5131 167.603 40.5131H164.762C164.583 40.5154 164.438 40.6593 164.436 40.8375V59.1303C164.438 59.3082 164.583 59.4517 164.762 59.4532H167.825C168.003 59.4524 168.148 59.3083 168.149 59.1303V47.8276L175.623 59.3608C175.675 59.4386 175.716 59.4518 175.828 59.4518H178.668C178.847 59.451 178.992 59.3071 178.994 59.1288L178.997 40.8375Z" fill="white"></path><path d="M158.456 40.8375C158.455 40.6586 158.31 40.5139 158.131 40.5131H155.069C154.89 40.5139 154.744 40.6586 154.744 40.8375V59.1288C154.744 59.3077 154.89 59.4524 155.069 59.4532H158.131C158.31 59.4524 158.455 59.3077 158.456 59.1288V40.8375Z" fill="white"></path><path d="M121.809 49.9853C121.809 49.0753 121.819 48.3178 121.846 47.7145C121.864 47.2226 121.913 46.7323 121.993 46.2466C122.276 44.6173 123.529 43.6558 125.128 43.6558C126.172 43.6646 127.118 44.0492 127.722 44.9241C127.996 45.3325 128.196 45.7856 128.312 46.2628C128.321 46.313 128.367 46.3481 128.418 46.3435H132.022C132.073 46.3435 132.093 46.3083 132.084 46.2584C131.69 44.0375 130.501 42.0426 128.399 41.0547C127.366 40.5784 126.239 40.3401 125.1 40.3575C123.071 40.3575 121.362 41.0493 119.973 42.4331C119.179 43.203 118.638 44.1935 118.419 45.2749C118.207 46.3396 118.1 47.9093 118.098 49.9839C118.096 52.0585 118.203 53.6277 118.419 54.6914C118.636 55.7742 119.176 56.7667 119.968 57.5391C121.357 58.9219 123.066 59.6132 125.096 59.6132C126.234 59.6304 127.361 59.3926 128.395 58.9175C130.496 57.9296 131.686 55.9347 132.079 53.7138C132.088 53.6624 132.069 53.6286 132.017 53.6286H128.412C128.361 53.6233 128.314 53.6587 128.306 53.7094C128.189 54.186 127.99 54.6386 127.717 55.0466C127.112 55.9274 126.166 56.3075 125.122 56.3149C123.523 56.3149 122.27 55.3549 121.987 53.7255C121.907 53.2398 121.858 52.7495 121.84 52.2576C121.819 51.6514 121.809 50.8925 121.809 49.9853Z" fill="white"></path><path d="M83.7469 40.8375C83.7461 40.6586 83.6008 40.5139 83.4212 40.5131H80.3599C80.1803 40.5139 80.035 40.6586 80.0342 40.8375V59.1303C80.0358 59.3086 80.1809 59.4524 80.3599 59.4534H83.4212C83.6002 59.4524 83.7453 59.3086 83.7469 59.1303V53.7608L86.2039 50.8353L91.2506 59.3564C91.2895 59.4192 91.3593 59.4562 91.4334 59.4534H95.1535C95.3245 59.4534 95.3554 59.3476 95.2699 59.2022L88.6624 48.0463L94.7246 40.8037C94.8469 40.6569 94.7953 40.5175 94.6037 40.5175H90.5372C90.4878 40.5146 90.4401 40.5366 90.4105 40.5762L83.7469 48.5351V40.8375Z" fill="white"></path><path d="M106.05 56.3149C104.327 56.3149 102.765 54.7266 102.765 52.8301V40.8375C102.764 40.6586 102.619 40.5139 102.439 40.5131H99.3777C99.1982 40.5139 99.0528 40.6586 99.052 40.8375V52.7832C99.052 56.9593 102.188 59.6132 106.05 59.6132C109.912 59.6132 113.048 56.9593 113.048 52.7832V40.8375C113.047 40.659 112.902 40.5147 112.722 40.5131H109.66C109.481 40.5147 109.336 40.6592 109.335 40.8375V52.8301C109.335 54.7252 107.772 56.3149 106.05 56.3149Z" fill="white"></path><path fill-rule="evenodd" clip-rule="evenodd" d="M49.262 49.9854L58.7658 59.4518L64.7646 53.4775C65.8372 52.5156 67.4783 52.5584 68.4989 53.5749C69.5196 54.5914 69.5626 56.2257 68.5967 57.294L60.6804 65.1795C59.617 66.221 57.9116 66.221 56.8482 65.1795L45.4269 53.8019V60.5645C45.4269 62.0569 44.2121 63.2668 42.7135 63.2668C41.2149 63.2668 40 62.0569 40 60.5645V39.3975C40 37.905 41.2149 36.6951 42.7135 36.6951C44.2121 36.6951 45.4269 37.905 45.4269 39.3975V46.1601L56.8467 34.7854C57.9098 33.7431 59.6159 33.7431 60.6789 34.7854L68.6011 42.6694C69.567 43.7377 69.524 45.3721 68.5034 46.3886C67.4827 47.405 65.8417 47.4478 64.769 46.4859L58.7702 40.5116L49.262 49.9854ZM58.7702 47.2801C57.6714 47.2795 56.6804 47.9382 56.2595 48.9491C55.8386 49.9599 56.0706 51.1238 56.8474 51.8978C57.6242 52.6718 58.7927 52.9036 59.8079 52.4849C60.8231 52.0663 61.4851 51.0797 61.4851 49.9854C61.4855 49.2679 61.1997 48.5796 60.6906 48.072C60.1814 47.5644 59.4906 47.279 58.7702 47.2786V47.2801Z" fill="white"></path></g><defs><clipPath id="clip0_1_1668"><rect width="140" height="32" fill="white" transform="translate(40 34)"></rect></clipPath></defs></svg> 