<?xml version="1.0" encoding="UTF-8"?> <svg xmlns="http://www.w3.org/2000/svg" width="220" height="100" viewBox="0 0 220 100" fill="none"><rect width="220" height="100" rx="8" fill="#121B1F"></rect><g clip-path="url(#clip0_1_1610)"><path d="M90.2371 36.7328H63.9744C63.8115 36.7328 63.6561 36.7915 63.5414 36.897C63.4856 36.9474 63.441 37.0086 63.4103 37.0767C63.3797 37.1447 63.3637 37.2182 63.3633 37.2926V61.3607C63.3633 61.509 63.4273 61.6515 63.542 61.7563C63.6566 61.8612 63.8121 61.9206 63.9739 61.9206H90.2371C90.3994 61.9206 90.5544 61.8612 90.6696 61.7563C90.7255 61.7059 90.7702 61.6448 90.801 61.5767C90.8316 61.5087 90.8478 61.4352 90.8483 61.3607V37.2926C90.8483 37.1444 90.7843 37.0019 90.6696 36.897C90.5518 36.7907 90.3973 36.732 90.2371 36.7328ZM81.6866 52.9648C81.6866 53.113 81.6226 53.2555 81.5073 53.3604C81.3899 53.4665 81.2358 53.5252 81.0761 53.5246H73.1355C72.9737 53.5246 72.8183 53.4654 72.7036 53.3604C72.6477 53.31 72.603 53.249 72.5723 53.1808C72.5415 53.1127 72.5254 53.0392 72.525 52.9648V45.6885C72.525 45.5403 72.589 45.3978 72.7036 45.2929C72.8183 45.1875 72.9737 45.1287 73.1355 45.1287H81.0761C81.2378 45.1287 81.3932 45.1875 81.5073 45.2929C81.5633 45.3432 81.6082 45.4043 81.6391 45.4724C81.6699 45.5404 81.6862 45.6141 81.6866 45.6885V52.9648ZM145.219 45.1298H137.278C136.941 45.1298 136.667 45.3807 136.667 45.6897V52.966C136.667 53.275 136.941 53.5257 137.278 53.5257H145.218C145.556 53.5257 145.829 53.275 145.829 52.966V45.6897C145.829 45.3801 145.556 45.1298 145.219 45.1298ZM136.059 36.7328H128.119C127.781 36.7328 127.508 36.9836 127.508 37.2932V44.5695C127.508 44.8785 127.781 45.1292 128.119 45.1292H136.058C136.396 45.1292 136.669 44.8785 136.669 44.5695V37.2932C136.669 36.9836 136.396 36.7328 136.059 36.7328ZM154.385 36.7328H146.445C146.108 36.7328 145.834 36.9836 145.834 37.2932V44.5695C145.834 44.8785 146.108 45.1292 146.445 45.1292H154.384C154.722 45.1292 154.996 44.8785 154.996 44.5695V37.2932C154.996 36.9836 154.723 36.7328 154.385 36.7328ZM136.059 53.5252H128.119C127.781 53.5252 127.508 53.7761 127.508 54.085V61.3618C127.508 61.6708 127.781 61.9211 128.119 61.9211H136.058C136.396 61.9211 136.669 61.6702 136.669 61.3618V54.085C136.669 53.7761 136.396 53.5252 136.059 53.5252ZM154.385 53.5252H146.445C146.108 53.5252 145.834 53.7761 145.834 54.085V61.3618C145.834 61.6708 146.108 61.9211 146.445 61.9211H154.384C154.722 61.9211 154.996 61.6702 154.996 61.3618V54.085C154.996 53.7761 154.723 53.5252 154.385 53.5252ZM122.305 36.7328H114.366C114.028 36.7328 113.755 36.9836 113.755 37.2932V44.5695C113.755 44.8785 114.028 45.1292 114.366 45.1292H122.305C122.643 45.1292 122.916 44.8785 122.916 44.5695V37.2932C122.916 36.9836 122.643 36.7328 122.305 36.7328ZM122.305 53.5252H114.366C114.028 53.5252 113.755 53.7761 113.755 54.085V61.3618C113.755 61.6708 114.028 61.9211 114.366 61.9211H122.305C122.643 61.9211 122.916 61.6702 122.916 61.3618V54.085C122.916 53.7761 122.643 53.5252 122.305 53.5252ZM113.752 45.6822C113.752 45.534 113.687 45.3915 113.573 45.286C113.456 45.1801 113.301 45.1215 113.141 45.1224H104.59V37.2926C104.59 37.1444 104.526 37.0019 104.412 36.897C104.294 36.7907 104.14 36.7321 103.98 36.7328H96.0398C95.8773 36.7328 95.7219 36.7915 95.6072 36.897C95.5512 36.9474 95.5065 37.0085 95.4759 37.0766C95.4451 37.1446 95.429 37.2182 95.4286 37.2926V61.3482C95.4286 61.4964 95.4926 61.6389 95.6072 61.7439C95.7219 61.8487 95.8773 61.908 96.0398 61.908H103.979C104.141 61.908 104.297 61.8487 104.412 61.7439C104.526 61.6389 104.59 61.4964 104.59 61.3482V53.5183H113.141C113.303 53.5183 113.459 53.4591 113.573 53.3542C113.629 53.3037 113.674 53.2427 113.705 53.1746C113.735 53.1064 113.751 53.0329 113.752 52.9586L113.752 45.6822Z" fill="white"></path></g><defs><clipPath id="clip0_1_1610"><rect width="93" height="42" fill="white" transform="translate(63 29)"></rect></clipPath></defs></svg> 