<?xml version="1.0" encoding="UTF-8"?> <svg xmlns="http://www.w3.org/2000/svg" width="14" height="22" viewBox="0 0 14 22" fill="none"><path d="M5.98022 0.0337448C2.85366 0.394682 0.387451 2.77945 0.0505371 5.77867C-0.0168457 6.38882 -0.0168457 15.5841 0.0505371 16.1943C0.351514 18.8841 2.36851 21.1142 5.09077 21.7716C7.47163 22.3474 9.93335 21.6771 11.6179 20.0013C12.5388 19.0818 13.1048 18.0591 13.3968 16.7873L13.5001 16.3361V10.9865V5.63687L13.3968 5.1857C12.8398 2.76226 11.0339 0.897417 8.60366 0.239994C7.8355 0.0294476 6.74839 -0.0521927 5.98022 0.0337448ZM7.6603 1.38726C9.89741 1.75679 11.6763 3.44976 12.0626 5.56382C12.1615 6.10523 12.1615 15.8677 12.0626 16.4091C11.7302 18.2439 10.3197 19.7994 8.45542 20.3966C5.35132 21.3849 2.02261 19.4771 1.46558 16.3791C1.35776 15.799 1.35776 6.17398 1.46558 5.5939C1.84741 3.47124 3.61284 1.76968 5.81851 1.39156C6.30815 1.30562 7.16616 1.30562 7.6603 1.38726Z" fill="#00D3C8"></path></svg> 