<?xml version="1.0" encoding="UTF-8"?> <svg xmlns="http://www.w3.org/2000/svg" width="220" height="100" viewBox="0 0 220 100" fill="none"><rect width="220" height="100" rx="8" fill="#121B1F"></rect><g clip-path="url(#clip0_1_1613)"><path d="M129.375 54.9504V32.762H133.97V54.9504H129.375Z" fill="#F6A500"></path><path d="M75.8456 61.5355H66V39.3472H75.4518C80.0464 39.3472 82.7178 41.7757 82.7178 45.5811C82.7178 48.0415 80.9981 49.635 79.8101 50.1642C81.2278 50.7888 83.046 52.1911 83.046 55.1486C83.046 59.2918 80.0398 61.5355 75.8456 61.5355ZM75.0842 43.2099H70.588V48.322H75.0842C77.0336 48.322 78.1232 47.2957 78.1232 45.7659C78.1232 44.2425 77.0336 43.2099 75.0842 43.2099ZM75.3796 52.2166H70.588V57.6729H75.3796C77.4603 57.6729 78.4514 56.4299 78.4514 54.932C78.4514 53.4341 77.4603 52.2229 75.3796 52.2229V52.2166Z" fill="white"></path><path d="M97.0605 52.4332V61.5355H92.4987V52.4332L85.4297 39.3472H90.4181L94.8092 48.2901L99.1413 39.3472H104.13L97.0605 52.4332Z" fill="white"></path><path d="M117.148 61.5355H107.303V39.3472H116.755C121.349 39.3472 124.021 41.7757 124.021 45.5811C124.021 48.0415 122.301 49.635 121.113 50.1642C122.531 50.7888 124.349 52.1911 124.349 55.1486C124.349 59.2918 121.343 61.5355 117.148 61.5355ZM116.387 43.2099H111.891V48.322H116.387C118.336 48.322 119.426 47.2957 119.426 45.7659C119.426 44.2425 118.336 43.2099 116.387 43.2099ZM116.682 52.2166H111.891V57.6729H116.682C118.763 57.6729 119.754 56.4299 119.754 54.932C119.754 53.4341 118.763 52.2229 116.682 52.2229V52.2166Z" fill="white"></path><path d="M148.768 43.2099V61.5355H144.18V43.2099H138.03V39.3472H154.918V43.2099H148.768Z" fill="white"></path></g><defs><clipPath id="clip0_1_1613"><rect width="93" height="44" fill="white" transform="translate(66 29)"></rect></clipPath></defs></svg> 