<?xml version="1.0" encoding="UTF-8"?> <svg xmlns="http://www.w3.org/2000/svg" width="14" height="10" viewBox="0 0 14 10" fill="none"><path d="M5.03122 0.0461496C4.51872 0.3149 4.51247 0.98365 5.02185 1.24615C5.13747 1.30552 5.24685 1.30552 9.00935 1.29927L12.8812 1.2899L13.0031 1.20552C13.0687 1.15865 13.1593 1.06802 13.2031 1.0024C13.2687 0.905525 13.2812 0.8524 13.2812 0.649275C13.2812 0.44615 13.2687 0.393025 13.2031 0.29615C13.1593 0.230525 13.0687 0.1399 13.0031 0.0930246L12.8812 0.00864961L9.0031 0.00239961C5.5156 -0.00385039 5.1156 -0.000725389 5.03122 0.0461496Z" fill="white"></path><path d="M0.325 4.06488C0.25 4.1055 0.146875 4.19925 0.09375 4.27113C0.009375 4.393 0 4.42738 0 4.64613C0 4.85863 0.009375 4.90238 0.084375 5.01175C0.13125 5.07738 0.221875 5.168 0.2875 5.21175L0.403125 5.28988H6.64062H12.8781L12.9937 5.21175C13.0594 5.168 13.15 5.07738 13.1969 5.01175C13.2719 4.90238 13.2812 4.85863 13.2812 4.64925C13.2812 4.43988 13.2719 4.39613 13.1969 4.28675C13.15 4.22113 13.0594 4.1305 12.9937 4.08675L12.8781 4.00863L6.67187 3.99925L0.4625 3.993L0.325 4.06488Z" fill="white"></path><path d="M0.325 8.06491C0.25 8.10553 0.146875 8.19928 0.09375 8.27116C0.009375 8.39303 0 8.42741 0 8.64616C0 8.85866 0.009375 8.90241 0.084375 9.01178C0.13125 9.07741 0.221875 9.16803 0.2875 9.21178L0.403125 9.28991L4.23125 9.29928C6.93125 9.30553 8.09688 9.29928 8.18125 9.27428C8.24375 9.25553 8.35 9.19616 8.4125 9.13991C8.76875 8.82741 8.69375 8.27428 8.25938 8.05241C8.14688 7.99616 8.02188 7.99303 4.30313 7.99303H0.4625L0.325 8.06491Z" fill="white"></path></svg> 